<?xml version="1.0" standalone="no"?><!-- Generator: Gravit.io --><svg xmlns="http://www.w3.org/2000/svg" xmlns:xlink="http://www.w3.org/1999/xlink" style="isolation:isolate" viewBox="0 0 450 150" width="450" height="150"><defs><clipPath id="_clipPath_bt8rnrBmzG03ePMZSZZcN1aiauQi7qjd"><rect width="450" height="150"/></clipPath></defs><g clip-path="url(#_clipPath_bt8rnrBmzG03ePMZSZZcN1aiauQi7qjd)"><path d=" M 291.582 90.998 L 295.11 90.998 L 285.678 107.558 L 285.678 116.198 L 282.222 116.198 L 282.222 107.702 L 272.646 90.998 L 276.174 90.998 L 283.95 103.85 L 291.582 90.998 Z  M 306.414 97.046 L 306.414 97.046 Q 309.258 97.046 311.472 98.27 L 311.472 98.27 L 311.472 98.27 Q 313.686 99.494 314.928 101.672 L 314.928 101.672 L 314.928 101.672 Q 316.17 103.85 316.17 106.658 L 316.17 106.658 L 316.17 106.658 Q 316.17 109.466 314.928 111.662 L 314.928 111.662 L 314.928 111.662 Q 313.686 113.858 311.472 115.082 L 311.472 115.082 L 311.472 115.082 Q 309.258 116.306 306.414 116.306 L 306.414 116.306 L 306.414 116.306 Q 303.534 116.306 301.32 115.082 L 301.32 115.082 L 301.32 115.082 Q 299.106 113.858 297.864 111.68 L 297.864 111.68 L 297.864 111.68 Q 296.622 109.502 296.622 106.658 L 296.622 106.658 L 296.622 106.658 Q 296.622 103.85 297.864 101.672 L 297.864 101.672 L 297.864 101.672 Q 299.106 99.494 301.32 98.27 L 301.32 98.27 L 301.32 98.27 Q 303.534 97.046 306.414 97.046 L 306.414 97.046 Z  M 306.414 99.962 L 306.414 99.962 Q 304.542 99.962 303.084 100.826 L 303.084 100.826 L 303.084 100.826 Q 301.626 101.69 300.816 103.22 L 300.816 103.22 L 300.816 103.22 Q 300.006 104.75 300.006 106.694 L 300.006 106.694 L 300.006 106.694 Q 300.006 108.674 300.816 110.222 L 300.816 110.222 L 300.816 110.222 Q 301.626 111.77 303.084 112.616 L 303.084 112.616 L 303.084 112.616 Q 304.542 113.462 306.414 113.462 L 306.414 113.462 L 306.414 113.462 Q 308.25 113.462 309.708 112.616 L 309.708 112.616 L 309.708 112.616 Q 311.166 111.77 311.976 110.222 L 311.976 110.222 L 311.976 110.222 Q 312.786 108.674 312.786 106.694 L 312.786 106.694 L 312.786 106.694 Q 312.786 104.75 311.976 103.22 L 311.976 103.22 L 311.976 103.22 Q 311.166 101.69 309.708 100.826 L 309.708 100.826 L 309.708 100.826 Q 308.25 99.962 306.414 99.962 L 306.414 99.962 Z  M 334.314 97.154 L 337.698 97.154 L 337.698 116.198 L 334.314 116.198 L 334.314 112.166 L 334.314 112.166 Q 332.442 116.234 327.258 116.306 L 327.258 116.306 L 327.258 116.306 Q 323.946 116.306 322.074 114.344 L 322.074 114.344 L 322.074 114.344 Q 320.202 112.382 320.202 108.926 L 320.202 108.926 L 320.202 97.154 L 323.586 97.154 L 323.586 108.026 L 323.586 108.026 Q 323.586 110.438 324.9 111.788 L 324.9 111.788 L 324.9 111.788 Q 326.214 113.138 328.518 113.138 L 328.518 113.138 L 328.518 113.138 Q 331.182 113.102 332.748 111.248 L 332.748 111.248 L 332.748 111.248 Q 334.314 109.394 334.314 106.514 L 334.314 106.514 L 334.314 97.154 Z  M 347.562 101.258 L 347.562 101.258 Q 348.498 99.206 350.226 98.144 L 350.226 98.144 L 350.226 98.144 Q 351.954 97.082 354.33 97.046 L 354.33 97.046 L 354.33 100.286 L 354.33 100.286 Q 351.414 100.178 349.614 101.798 L 349.614 101.798 L 349.614 101.798 Q 347.814 103.418 347.562 106.154 L 347.562 106.154 L 347.562 116.198 L 344.214 116.198 L 344.214 97.154 L 347.562 97.154 L 347.562 101.258 Z  M 368.37 101.366 L 368.37 101.366 Q 367.182 100.646 365.76 100.214 L 365.76 100.214 L 365.76 100.214 Q 364.338 99.782 363.042 99.782 L 363.042 99.782 L 363.042 99.782 Q 361.53 99.782 360.612 100.34 L 360.612 100.34 L 360.612 100.34 Q 359.694 100.898 359.694 102.05 L 359.694 102.05 L 359.694 102.05 Q 359.694 103.202 360.72 103.796 L 360.72 103.796 L 360.72 103.796 Q 361.746 104.39 363.834 105.002 L 363.834 105.002 L 363.834 105.002 Q 365.814 105.578 367.074 106.154 L 367.074 106.154 L 367.074 106.154 Q 368.334 106.73 369.216 107.846 L 369.216 107.846 L 369.216 107.846 Q 370.098 108.962 370.098 110.798 L 370.098 110.798 L 370.098 110.798 Q 370.098 113.498 368.064 114.902 L 368.064 114.902 L 368.064 114.902 Q 366.03 116.306 363.006 116.306 L 363.006 116.306 L 363.006 116.306 Q 360.882 116.306 358.884 115.622 L 358.884 115.622 L 358.884 115.622 Q 356.886 114.938 355.518 113.678 L 355.518 113.678 L 356.778 111.23 L 356.778 111.23 Q 357.966 112.31 359.712 112.958 L 359.712 112.958 L 359.712 112.958 Q 361.458 113.606 363.114 113.606 L 363.114 113.606 L 363.114 113.606 Q 364.77 113.606 365.778 112.994 L 365.778 112.994 L 365.778 112.994 Q 366.786 112.382 366.786 111.122 L 366.786 111.122 L 366.786 111.122 Q 366.786 109.826 365.724 109.178 L 365.724 109.178 L 365.724 109.178 Q 364.662 108.53 362.502 107.882 L 362.502 107.882 L 362.502 107.882 Q 360.594 107.342 359.388 106.784 L 359.388 106.784 L 359.388 106.784 Q 358.182 106.226 357.336 105.146 L 357.336 105.146 L 357.336 105.146 Q 356.49 104.066 356.49 102.338 L 356.49 102.338 L 356.49 102.338 Q 356.49 99.674 358.434 98.342 L 358.434 98.342 L 358.434 98.342 Q 360.378 97.01 363.294 97.01 L 363.294 97.01 L 363.294 97.01 Q 365.022 97.01 366.696 97.496 L 366.696 97.496 L 366.696 97.496 Q 368.37 97.982 369.594 98.81 L 369.594 98.81 L 368.37 101.366 Z  M 382.158 97.046 L 382.158 97.046 Q 386.586 97.046 388.854 99.656 L 388.854 99.656 L 388.854 99.656 Q 391.122 102.266 391.122 106.91 L 391.122 106.91 L 391.122 106.91 Q 391.122 107.63 391.086 107.99 L 391.086 107.99 L 376.038 107.99 L 376.038 107.99 Q 376.434 110.546 378.18 112.058 L 378.18 112.058 L 378.18 112.058 Q 379.926 113.57 382.482 113.57 L 382.482 113.57 L 382.482 113.57 Q 384.174 113.57 385.632 112.958 L 385.632 112.958 L 385.632 112.958 Q 387.09 112.346 388.17 111.23 L 388.17 111.23 L 390.006 113.138 L 390.006 113.138 Q 388.602 114.65 386.622 115.478 L 386.622 115.478 L 386.622 115.478 Q 384.642 116.306 382.23 116.306 L 382.23 116.306 L 382.23 116.306 Q 379.422 116.306 377.244 115.1 L 377.244 115.1 L 377.244 115.1 Q 375.066 113.894 373.86 111.698 L 373.86 111.698 L 373.86 111.698 Q 372.654 109.502 372.654 106.694 L 372.654 106.694 L 372.654 106.694 Q 372.654 103.886 373.86 101.708 L 373.86 101.708 L 373.86 101.708 Q 375.066 99.53 377.226 98.288 L 377.226 98.288 L 377.226 98.288 Q 379.386 97.046 382.158 97.046 L 382.158 97.046 Z  M 376.002 105.398 L 388.098 105.398 L 388.098 105.398 Q 387.954 102.806 386.37 101.312 L 386.37 101.312 L 386.37 101.312 Q 384.786 99.818 382.194 99.818 L 382.194 99.818 L 382.194 99.818 Q 379.674 99.818 378 101.33 L 378 101.33 L 378 101.33 Q 376.326 102.842 376.002 105.398 L 376.002 105.398 Z  M 395.874 116.198 L 395.874 89.486 L 399.222 89.486 L 399.222 116.198 L 395.874 116.198 Z  M 412.974 92.258 L 412.974 92.258 Q 411.678 92.258 410.814 93.05 L 410.814 93.05 L 410.814 93.05 Q 409.95 93.842 409.95 95.318 L 409.95 95.318 L 409.95 97.802 L 415.206 97.802 L 415.206 100.358 L 409.95 100.358 L 409.95 116.198 L 406.602 116.198 L 406.602 100.358 L 404.118 100.358 L 404.118 97.802 L 406.602 97.802 L 406.602 95.75 L 406.602 95.75 Q 406.602 93.662 407.484 92.204 L 407.484 92.204 L 407.484 92.204 Q 408.366 90.746 409.806 90.008 L 409.806 90.008 L 409.806 90.008 Q 411.246 89.27 412.902 89.27 L 412.902 89.27 L 412.902 89.27 Q 414.486 89.27 416.214 90.134 L 416.214 90.134 L 415.422 92.87 L 415.422 92.87 Q 414.126 92.258 412.974 92.258 L 412.974 92.258 Z  M 158.958 116.198 L 154.998 116.198 L 149.994 108.278 L 149.994 108.278 Q 149.13 108.35 148.59 108.35 L 148.59 108.35 L 142.182 108.35 L 142.182 116.198 L 138.726 116.198 L 138.726 90.998 L 148.59 90.998 L 148.59 90.998 Q 153.378 90.998 155.988 93.212 L 155.988 93.212 L 155.988 93.212 Q 158.598 95.426 158.598 99.494 L 158.598 99.494 L 158.598 99.494 Q 158.598 102.554 157.176 104.642 L 157.176 104.642 L 157.176 104.642 Q 155.754 106.73 153.09 107.666 L 153.09 107.666 L 158.958 116.198 Z  M 142.182 105.218 L 148.59 105.218 L 148.59 105.218 Q 151.83 105.218 153.558 103.796 L 153.558 103.796 L 153.558 103.796 Q 155.286 102.374 155.286 99.602 L 155.286 99.602 L 155.286 99.602 Q 155.286 96.902 153.558 95.516 L 153.558 95.516 L 153.558 95.516 Q 151.83 94.13 148.59 94.13 L 148.59 94.13 L 142.182 94.13 L 142.182 105.218 Z  M 172.062 97.046 L 172.062 97.046 Q 176.49 97.046 178.758 99.656 L 178.758 99.656 L 178.758 99.656 Q 181.026 102.266 181.026 106.91 L 181.026 106.91 L 181.026 106.91 Q 181.026 107.63 180.99 107.99 L 180.99 107.99 L 165.942 107.99 L 165.942 107.99 Q 166.338 110.546 168.084 112.058 L 168.084 112.058 L 168.084 112.058 Q 169.83 113.57 172.386 113.57 L 172.386 113.57 L 172.386 113.57 Q 174.078 113.57 175.536 112.958 L 175.536 112.958 L 175.536 112.958 Q 176.994 112.346 178.074 111.23 L 178.074 111.23 L 179.91 113.138 L 179.91 113.138 Q 178.506 114.65 176.526 115.478 L 176.526 115.478 L 176.526 115.478 Q 174.546 116.306 172.134 116.306 L 172.134 116.306 L 172.134 116.306 Q 169.326 116.306 167.148 115.1 L 167.148 115.1 L 167.148 115.1 Q 164.97 113.894 163.764 111.698 L 163.764 111.698 L 163.764 111.698 Q 162.558 109.502 162.558 106.694 L 162.558 106.694 L 162.558 106.694 Q 162.558 103.886 163.764 101.708 L 163.764 101.708 L 163.764 101.708 Q 164.97 99.53 167.13 98.288 L 167.13 98.288 L 167.13 98.288 Q 169.29 97.046 172.062 97.046 L 172.062 97.046 Z  M 165.906 105.398 L 178.002 105.398 L 178.002 105.398 Q 177.858 102.806 176.274 101.312 L 176.274 101.312 L 176.274 101.312 Q 174.69 99.818 172.098 99.818 L 172.098 99.818 L 172.098 99.818 Q 169.578 99.818 167.904 101.33 L 167.904 101.33 L 167.904 101.33 Q 166.23 102.842 165.906 105.398 L 165.906 105.398 Z  M 196.182 97.046 L 196.182 97.046 Q 198.846 97.046 200.934 98.27 L 200.934 98.27 L 200.934 98.27 Q 203.022 99.494 204.174 101.69 L 204.174 101.69 L 204.174 101.69 Q 205.326 103.886 205.326 106.73 L 205.326 106.73 L 205.326 106.73 Q 205.326 109.538 204.192 111.716 L 204.192 111.716 L 204.192 111.716 Q 203.058 113.894 200.988 115.1 L 200.988 115.1 L 200.988 115.1 Q 198.918 116.306 196.254 116.306 L 196.254 116.306 L 196.254 116.306 Q 193.842 116.306 192.006 115.298 L 192.006 115.298 L 192.006 115.298 Q 190.17 114.29 189.126 112.418 L 189.126 112.418 L 189.126 123.182 L 185.778 123.182 L 185.778 97.154 L 189.126 97.154 L 189.126 100.934 L 189.126 100.934 Q 190.17 99.062 191.988 98.054 L 191.988 98.054 L 191.988 98.054 Q 193.806 97.046 196.182 97.046 L 196.182 97.046 Z  M 195.534 113.39 L 195.534 113.39 Q 197.37 113.39 198.828 112.526 L 198.828 112.526 L 198.828 112.526 Q 200.286 111.662 201.096 110.114 L 201.096 110.114 L 201.096 110.114 Q 201.906 108.566 201.906 106.622 L 201.906 106.622 L 201.906 106.622 Q 201.906 104.714 201.078 103.166 L 201.078 103.166 L 201.078 103.166 Q 200.25 101.618 198.81 100.754 L 198.81 100.754 L 198.81 100.754 Q 197.37 99.89 195.534 99.89 L 195.534 99.89 L 195.534 99.89 Q 193.698 99.89 192.24 100.754 L 192.24 100.754 L 192.24 100.754 Q 190.782 101.618 189.954 103.166 L 189.954 103.166 L 189.954 103.166 Q 189.126 104.714 189.126 106.622 L 189.126 106.622 L 189.126 106.622 Q 189.126 108.602 189.954 110.132 L 189.954 110.132 L 189.954 110.132 Q 190.782 111.662 192.24 112.526 L 192.24 112.526 L 192.24 112.526 Q 193.698 113.39 195.534 113.39 L 195.534 113.39 Z  M 217.638 97.046 L 217.638 97.046 Q 222.066 97.046 224.334 99.656 L 224.334 99.656 L 224.334 99.656 Q 226.602 102.266 226.602 106.91 L 226.602 106.91 L 226.602 106.91 Q 226.602 107.63 226.566 107.99 L 226.566 107.99 L 211.518 107.99 L 211.518 107.99 Q 211.914 110.546 213.66 112.058 L 213.66 112.058 L 213.66 112.058 Q 215.406 113.57 217.962 113.57 L 217.962 113.57 L 217.962 113.57 Q 219.654 113.57 221.112 112.958 L 221.112 112.958 L 221.112 112.958 Q 222.57 112.346 223.65 111.23 L 223.65 111.23 L 225.486 113.138 L 225.486 113.138 Q 224.082 114.65 222.102 115.478 L 222.102 115.478 L 222.102 115.478 Q 220.122 116.306 217.71 116.306 L 217.71 116.306 L 217.71 116.306 Q 214.902 116.306 212.724 115.1 L 212.724 115.1 L 212.724 115.1 Q 210.546 113.894 209.34 111.698 L 209.34 111.698 L 209.34 111.698 Q 208.134 109.502 208.134 106.694 L 208.134 106.694 L 208.134 106.694 Q 208.134 103.886 209.34 101.708 L 209.34 101.708 L 209.34 101.708 Q 210.546 99.53 212.706 98.288 L 212.706 98.288 L 212.706 98.288 Q 214.866 97.046 217.638 97.046 L 217.638 97.046 Z  M 211.482 105.398 L 223.578 105.398 L 223.578 105.398 Q 223.434 102.806 221.85 101.312 L 221.85 101.312 L 221.85 101.312 Q 220.266 99.818 217.674 99.818 L 217.674 99.818 L 217.674 99.818 Q 215.154 99.818 213.48 101.33 L 213.48 101.33 L 213.48 101.33 Q 211.806 102.842 211.482 105.398 L 211.482 105.398 Z  M 246.114 116.198 L 242.802 116.198 L 242.802 113.534 L 242.802 113.534 Q 240.678 116.342 236.142 116.342 L 236.142 116.342 L 236.142 116.342 Q 234.162 116.342 232.668 115.586 L 232.668 115.586 L 232.668 115.586 Q 231.174 114.83 230.364 113.498 L 230.364 113.498 L 230.364 113.498 Q 229.554 112.166 229.554 110.51 L 229.554 110.51 L 229.554 110.51 Q 229.554 107.954 231.444 106.46 L 231.444 106.46 L 231.444 106.46 Q 233.334 104.966 236.718 104.93 L 236.718 104.93 L 242.766 104.93 L 242.766 104.03 L 242.766 104.03 Q 242.766 102.014 241.524 100.916 L 241.524 100.916 L 241.524 100.916 Q 240.282 99.818 237.906 99.818 L 237.906 99.818 L 237.906 99.818 Q 235.026 99.818 232.038 101.87 L 232.038 101.87 L 230.634 99.566 L 230.634 99.566 Q 232.686 98.234 234.432 97.64 L 234.432 97.64 L 234.432 97.64 Q 236.178 97.046 238.59 97.046 L 238.59 97.046 L 238.59 97.046 Q 242.154 97.046 244.098 98.792 L 244.098 98.792 L 244.098 98.792 Q 246.042 100.538 246.078 103.67 L 246.078 103.67 L 246.114 116.198 Z  M 236.826 113.57 L 236.826 113.57 Q 239.166 113.57 240.804 112.436 L 240.804 112.436 L 240.804 112.436 Q 242.442 111.302 242.766 109.43 L 242.766 109.43 L 242.766 107.522 L 237.186 107.522 L 237.186 107.522 Q 234.918 107.522 233.82 108.206 L 233.82 108.206 L 233.82 108.206 Q 232.722 108.89 232.722 110.366 L 232.722 110.366 L 232.722 110.366 Q 232.722 111.842 233.838 112.706 L 233.838 112.706 L 233.838 112.706 Q 234.954 113.57 236.826 113.57 L 236.826 113.57 Z  M 261.414 112.346 L 262.314 114.938 L 262.314 114.938 Q 260.118 116.342 257.85 116.342 L 257.85 116.342 L 257.85 116.342 Q 255.582 116.342 254.178 114.992 L 254.178 114.992 L 254.178 114.992 Q 252.774 113.642 252.774 110.906 L 252.774 110.906 L 252.774 100.358 L 250.074 100.358 L 250.074 97.802 L 252.774 97.802 L 252.774 92.69 L 256.158 92.69 L 256.158 97.802 L 261.99 97.802 L 261.99 100.358 L 256.158 100.358 L 256.158 110.294 L 256.158 110.294 Q 256.158 111.878 256.734 112.562 L 256.734 112.562 L 256.734 112.562 Q 257.31 113.246 258.462 113.246 L 258.462 113.246 L 258.462 113.246 Q 259.83 113.246 261.414 112.346 L 261.414 112.346 Z  M 44.046 90.998 L 44.046 90.998 Q 47.718 90.998 50.688 92.636 L 50.688 92.636 L 50.688 92.636 Q 53.658 94.274 55.35 97.154 L 55.35 97.154 L 55.35 97.154 Q 57.042 100.034 57.042 103.598 L 57.042 103.598 L 57.042 103.598 Q 57.042 107.162 55.332 110.042 L 55.332 110.042 L 55.332 110.042 Q 53.622 112.922 50.634 114.56 L 50.634 114.56 L 50.634 114.56 Q 47.646 116.198 43.938 116.198 L 43.938 116.198 L 33.786 116.198 L 33.786 90.998 L 44.046 90.998 Z  M 44.118 113.066 L 44.118 113.066 Q 46.746 113.066 48.888 111.842 L 48.888 111.842 L 48.888 111.842 Q 51.03 110.618 52.272 108.458 L 52.272 108.458 L 52.272 108.458 Q 53.514 106.298 53.514 103.634 L 53.514 103.634 L 53.514 103.634 Q 53.514 100.934 52.254 98.774 L 52.254 98.774 L 52.254 98.774 Q 50.994 96.614 48.816 95.372 L 48.816 95.372 L 48.816 95.372 Q 46.638 94.13 43.974 94.13 L 43.974 94.13 L 37.242 94.13 L 37.242 113.066 L 44.118 113.066 Z  M 69.57 97.046 L 69.57 97.046 Q 72.414 97.046 74.628 98.27 L 74.628 98.27 L 74.628 98.27 Q 76.842 99.494 78.084 101.672 L 78.084 101.672 L 78.084 101.672 Q 79.326 103.85 79.326 106.658 L 79.326 106.658 L 79.326 106.658 Q 79.326 109.466 78.084 111.662 L 78.084 111.662 L 78.084 111.662 Q 76.842 113.858 74.628 115.082 L 74.628 115.082 L 74.628 115.082 Q 72.414 116.306 69.57 116.306 L 69.57 116.306 L 69.57 116.306 Q 66.69 116.306 64.476 115.082 L 64.476 115.082 L 64.476 115.082 Q 62.262 113.858 61.02 111.68 L 61.02 111.68 L 61.02 111.68 Q 59.778 109.502 59.778 106.658 L 59.778 106.658 L 59.778 106.658 Q 59.778 103.85 61.02 101.672 L 61.02 101.672 L 61.02 101.672 Q 62.262 99.494 64.476 98.27 L 64.476 98.27 L 64.476 98.27 Q 66.69 97.046 69.57 97.046 L 69.57 97.046 Z  M 69.57 99.962 L 69.57 99.962 Q 67.698 99.962 66.24 100.826 L 66.24 100.826 L 66.24 100.826 Q 64.782 101.69 63.972 103.22 L 63.972 103.22 L 63.972 103.22 Q 63.162 104.75 63.162 106.694 L 63.162 106.694 L 63.162 106.694 Q 63.162 108.674 63.972 110.222 L 63.972 110.222 L 63.972 110.222 Q 64.782 111.77 66.24 112.616 L 66.24 112.616 L 66.24 112.616 Q 67.698 113.462 69.57 113.462 L 69.57 113.462 L 69.57 113.462 Q 71.406 113.462 72.864 112.616 L 72.864 112.616 L 72.864 112.616 Q 74.322 111.77 75.132 110.222 L 75.132 110.222 L 75.132 110.222 Q 75.942 108.674 75.942 106.694 L 75.942 106.694 L 75.942 106.694 Q 75.942 104.75 75.132 103.22 L 75.132 103.22 L 75.132 103.22 Q 74.322 101.69 72.864 100.826 L 72.864 100.826 L 72.864 100.826 Q 71.406 99.962 69.57 99.962 L 69.57 99.962 Z  M 94.59 97.046 L 94.59 97.046 Q 97.938 97.046 99.846 99.008 L 99.846 99.008 L 99.846 99.008 Q 101.754 100.97 101.754 104.426 L 101.754 104.426 L 101.754 116.198 L 98.406 116.198 L 98.406 105.326 L 98.406 105.326 Q 98.406 102.914 97.056 101.564 L 97.056 101.564 L 97.056 101.564 Q 95.706 100.214 93.33 100.214 L 93.33 100.214 L 93.33 100.214 Q 90.774 100.25 89.172 101.852 L 89.172 101.852 L 89.172 101.852 Q 87.57 103.454 87.354 106.01 L 87.354 106.01 L 87.354 116.198 L 84.006 116.198 L 84.006 97.154 L 87.354 97.154 L 87.354 101.186 L 87.354 101.186 Q 89.262 97.118 94.59 97.046 L 94.59 97.046 Z  M 106.614 99.386 L 106.614 90.998 L 109.242 90.998 L 109.242 99.386 L 106.614 99.386 Z  M 124.002 112.346 L 124.902 114.938 L 124.902 114.938 Q 122.706 116.342 120.438 116.342 L 120.438 116.342 L 120.438 116.342 Q 118.17 116.342 116.766 114.992 L 116.766 114.992 L 116.766 114.992 Q 115.362 113.642 115.362 110.906 L 115.362 110.906 L 115.362 100.358 L 112.662 100.358 L 112.662 97.802 L 115.362 97.802 L 115.362 92.69 L 118.746 92.69 L 118.746 97.802 L 124.578 97.802 L 124.578 100.358 L 118.746 100.358 L 118.746 110.294 L 118.746 110.294 Q 118.746 111.878 119.322 112.562 L 119.322 112.562 L 119.322 112.562 Q 119.898 113.246 121.05 113.246 L 121.05 113.246 L 121.05 113.246 Q 122.418 113.246 124.002 112.346 L 124.002 112.346 Z " fill-rule="evenodd" fill="rgb(220,20,60)"/><path d=" M 181.11 27.098 L 181.11 27.098 Q 187.23 27.098 192.18 29.828 L 192.18 29.828 L 192.18 29.828 Q 197.13 32.558 199.95 37.358 L 199.95 37.358 L 199.95 37.358 Q 202.77 42.158 202.77 48.098 L 202.77 48.098 L 202.77 48.098 Q 202.77 54.038 199.92 58.838 L 199.92 58.838 L 199.92 58.838 Q 197.07 63.638 192.09 66.368 L 192.09 66.368 L 192.09 66.368 Q 187.11 69.098 180.93 69.098 L 180.93 69.098 L 164.01 69.098 L 164.01 27.098 L 181.11 27.098 Z  M 181.23 63.878 L 181.23 63.878 Q 185.61 63.878 189.18 61.838 L 189.18 61.838 L 189.18 61.838 Q 192.75 59.798 194.82 56.198 L 194.82 56.198 L 194.82 56.198 Q 196.89 52.598 196.89 48.158 L 196.89 48.158 L 196.89 48.158 Q 196.89 43.658 194.79 40.058 L 194.79 40.058 L 194.79 40.058 Q 192.69 36.458 189.06 34.388 L 189.06 34.388 L 189.06 34.388 Q 185.43 32.318 180.99 32.318 L 180.99 32.318 L 169.77 32.318 L 169.77 63.878 L 181.23 63.878 Z  M 244.71 69.098 L 238.11 69.098 L 229.77 55.898 L 229.77 55.898 Q 228.33 56.018 227.43 56.018 L 227.43 56.018 L 216.75 56.018 L 216.75 69.098 L 210.99 69.098 L 210.99 27.098 L 227.43 27.098 L 227.43 27.098 Q 235.41 27.098 239.76 30.788 L 239.76 30.788 L 239.76 30.788 Q 244.11 34.478 244.11 41.258 L 244.11 41.258 L 244.11 41.258 Q 244.11 46.358 241.74 49.838 L 241.74 49.838 L 241.74 49.838 Q 239.37 53.318 234.93 54.878 L 234.93 54.878 L 244.71 69.098 Z  M 216.75 50.798 L 227.43 50.798 L 227.43 50.798 Q 232.83 50.798 235.71 48.428 L 235.71 48.428 L 235.71 48.428 Q 238.59 46.058 238.59 41.438 L 238.59 41.438 L 238.59 41.438 Q 238.59 36.938 235.71 34.628 L 235.71 34.628 L 235.71 34.628 Q 232.83 32.318 227.43 32.318 L 227.43 32.318 L 216.75 32.318 L 216.75 50.798 Z  M 280.11 27.098 L 285.99 27.098 L 270.27 54.698 L 270.27 69.098 L 264.51 69.098 L 264.51 54.938 L 248.55 27.098 L 254.43 27.098 L 267.39 48.518 L 280.11 27.098 Z " fill-rule="evenodd" fill="rgb(220,20,60)"/></g></svg>