<?xml version="1.0" standalone="no"?><!-- Generator: Gravit.io --><svg xmlns="http://www.w3.org/2000/svg" xmlns:xlink="http://www.w3.org/1999/xlink" style="isolation:isolate" viewBox="0 0 450 150" width="450" height="150"><defs><clipPath id="_clipPath_E6LGNSygluldqXTxyPLclrcUQjBskouZ"><rect width="450" height="150"/></clipPath></defs><g clip-path="url(#_clipPath_E6LGNSygluldqXTxyPLclrcUQjBskouZ)"><path d=" M 360.036 97.108 L 360.036 97.108 Q 358.596 95.596 356.688 94.75 L 356.688 94.75 L 356.688 94.75 Q 354.78 93.904 352.764 93.904 L 352.764 93.904 L 352.764 93.904 Q 350.1 93.904 347.868 95.2 L 347.868 95.2 L 347.868 95.2 Q 345.636 96.496 344.34 98.71 L 344.34 98.71 L 344.34 98.71 Q 343.044 100.924 343.044 103.588 L 343.044 103.588 L 343.044 103.588 Q 343.044 106.216 344.34 108.448 L 344.34 108.448 L 344.34 108.448 Q 345.636 110.68 347.868 111.976 L 347.868 111.976 L 347.868 111.976 Q 350.1 113.272 352.764 113.272 L 352.764 113.272 L 352.764 113.272 Q 354.744 113.272 356.652 112.462 L 356.652 112.462 L 356.652 112.462 Q 358.56 111.652 360.036 110.248 L 360.036 110.248 L 362.124 112.516 L 362.124 112.516 Q 360.216 114.388 357.696 115.45 L 357.696 115.45 L 357.696 115.45 Q 355.176 116.512 352.584 116.512 L 352.584 116.512 L 352.584 116.512 Q 348.984 116.512 345.996 114.802 L 345.996 114.802 L 345.996 114.802 Q 343.008 113.092 341.28 110.14 L 341.28 110.14 L 341.28 110.14 Q 339.552 107.188 339.552 103.624 L 339.552 103.624 L 339.552 103.624 Q 339.552 100.096 341.298 97.162 L 341.298 97.162 L 341.298 97.162 Q 343.044 94.228 346.068 92.536 L 346.068 92.536 L 346.068 92.536 Q 349.092 90.844 352.728 90.844 L 352.728 90.844 L 352.728 90.844 Q 355.356 90.844 357.822 91.834 L 357.822 91.834 L 357.822 91.834 Q 360.288 92.824 362.088 94.624 L 362.088 94.624 L 360.036 97.108 Z  M 381.672 96.316 L 381.672 96.316 Q 379.908 95.2 378.018 94.642 L 378.018 94.642 L 378.018 94.642 Q 376.128 94.084 374.544 94.084 L 374.544 94.084 L 374.544 94.084 Q 372.348 94.084 371.034 94.93 L 371.034 94.93 L 371.034 94.93 Q 369.72 95.776 369.72 97.252 L 369.72 97.252 L 369.72 97.252 Q 369.72 98.584 370.512 99.43 L 370.512 99.43 L 370.512 99.43 Q 371.304 100.276 372.456 100.762 L 372.456 100.762 L 372.456 100.762 Q 373.608 101.248 375.66 101.896 L 375.66 101.896 L 375.66 101.896 Q 378.216 102.688 379.8 103.408 L 379.8 103.408 L 379.8 103.408 Q 381.384 104.128 382.5 105.55 L 382.5 105.55 L 382.5 105.55 Q 383.616 106.972 383.616 109.312 L 383.616 109.312 L 383.616 109.312 Q 383.616 111.472 382.446 113.092 L 382.446 113.092 L 382.446 113.092 Q 381.276 114.712 379.17 115.594 L 379.17 115.594 L 379.17 115.594 Q 377.064 116.476 374.328 116.476 L 374.328 116.476 L 374.328 116.476 Q 371.556 116.476 368.928 115.396 L 368.928 115.396 L 368.928 115.396 Q 366.3 114.316 364.392 112.516 L 364.392 112.516 L 365.94 109.528 L 365.94 109.528 Q 367.74 111.292 369.99 112.246 L 369.99 112.246 L 369.99 112.246 Q 372.24 113.2 374.364 113.2 L 374.364 113.2 L 374.364 113.2 Q 376.884 113.2 378.342 112.21 L 378.342 112.21 L 378.342 112.21 Q 379.8 111.22 379.8 109.528 L 379.8 109.528 L 379.8 109.528 Q 379.8 108.196 379.008 107.332 L 379.008 107.332 L 379.008 107.332 Q 378.216 106.468 377.01 105.964 L 377.01 105.964 L 377.01 105.964 Q 375.804 105.46 373.752 104.848 L 373.752 104.848 L 373.752 104.848 Q 371.232 104.092 369.648 103.372 L 369.648 103.372 L 369.648 103.372 Q 368.064 102.652 366.966 101.248 L 366.966 101.248 L 366.966 101.248 Q 365.868 99.844 365.868 97.54 L 365.868 97.54 L 365.868 97.54 Q 365.868 95.524 366.984 93.976 L 366.984 93.976 L 366.984 93.976 Q 368.1 92.428 370.116 91.6 L 370.116 91.6 L 370.116 91.6 Q 372.132 90.772 374.796 90.772 L 374.796 90.772 L 374.796 90.772 Q 377.064 90.772 379.242 91.438 L 379.242 91.438 L 379.242 91.438 Q 381.42 92.104 383.112 93.22 L 383.112 93.22 L 381.672 96.316 Z  M 403.848 96.316 L 403.848 96.316 Q 402.084 95.2 400.194 94.642 L 400.194 94.642 L 400.194 94.642 Q 398.304 94.084 396.72 94.084 L 396.72 94.084 L 396.72 94.084 Q 394.524 94.084 393.21 94.93 L 393.21 94.93 L 393.21 94.93 Q 391.896 95.776 391.896 97.252 L 391.896 97.252 L 391.896 97.252 Q 391.896 98.584 392.688 99.43 L 392.688 99.43 L 392.688 99.43 Q 393.48 100.276 394.632 100.762 L 394.632 100.762 L 394.632 100.762 Q 395.784 101.248 397.836 101.896 L 397.836 101.896 L 397.836 101.896 Q 400.392 102.688 401.976 103.408 L 401.976 103.408 L 401.976 103.408 Q 403.56 104.128 404.676 105.55 L 404.676 105.55 L 404.676 105.55 Q 405.792 106.972 405.792 109.312 L 405.792 109.312 L 405.792 109.312 Q 405.792 111.472 404.622 113.092 L 404.622 113.092 L 404.622 113.092 Q 403.452 114.712 401.346 115.594 L 401.346 115.594 L 401.346 115.594 Q 399.24 116.476 396.504 116.476 L 396.504 116.476 L 396.504 116.476 Q 393.732 116.476 391.104 115.396 L 391.104 115.396 L 391.104 115.396 Q 388.476 114.316 386.568 112.516 L 386.568 112.516 L 388.116 109.528 L 388.116 109.528 Q 389.916 111.292 392.166 112.246 L 392.166 112.246 L 392.166 112.246 Q 394.416 113.2 396.54 113.2 L 396.54 113.2 L 396.54 113.2 Q 399.06 113.2 400.518 112.21 L 400.518 112.21 L 400.518 112.21 Q 401.976 111.22 401.976 109.528 L 401.976 109.528 L 401.976 109.528 Q 401.976 108.196 401.184 107.332 L 401.184 107.332 L 401.184 107.332 Q 400.392 106.468 399.186 105.964 L 399.186 105.964 L 399.186 105.964 Q 397.98 105.46 395.928 104.848 L 395.928 104.848 L 395.928 104.848 Q 393.408 104.092 391.824 103.372 L 391.824 103.372 L 391.824 103.372 Q 390.24 102.652 389.142 101.248 L 389.142 101.248 L 389.142 101.248 Q 388.044 99.844 388.044 97.54 L 388.044 97.54 L 388.044 97.54 Q 388.044 95.524 389.16 93.976 L 389.16 93.976 L 389.16 93.976 Q 390.276 92.428 392.292 91.6 L 392.292 91.6 L 392.292 91.6 Q 394.308 90.772 396.972 90.772 L 396.972 90.772 L 396.972 90.772 Q 399.24 90.772 401.418 91.438 L 401.418 91.438 L 401.418 91.438 Q 403.596 92.104 405.288 93.22 L 405.288 93.22 L 403.848 96.316 Z  M 185.688 90.844 L 185.688 90.844 Q 189.324 90.844 192.366 92.536 L 192.366 92.536 L 192.366 92.536 Q 195.408 94.228 197.172 97.162 L 197.172 97.162 L 197.172 97.162 Q 198.936 100.096 198.936 103.624 L 198.936 103.624 L 198.936 103.624 Q 198.936 107.152 197.172 110.122 L 197.172 110.122 L 197.172 110.122 Q 195.408 113.092 192.366 114.802 L 192.366 114.802 L 192.366 114.802 Q 189.324 116.512 185.688 116.512 L 185.688 116.512 L 185.688 116.512 Q 182.052 116.512 179.01 114.802 L 179.01 114.802 L 179.01 114.802 Q 175.968 113.092 174.204 110.122 L 174.204 110.122 L 174.204 110.122 Q 172.44 107.152 172.44 103.624 L 172.44 103.624 L 172.44 103.624 Q 172.44 100.096 174.204 97.162 L 174.204 97.162 L 174.204 97.162 Q 175.968 94.228 178.992 92.536 L 178.992 92.536 L 178.992 92.536 Q 182.016 90.844 185.688 90.844 L 185.688 90.844 Z  M 185.724 93.94 L 185.724 93.94 Q 183.096 93.94 180.846 95.236 L 180.846 95.236 L 180.846 95.236 Q 178.596 96.532 177.264 98.746 L 177.264 98.746 L 177.264 98.746 Q 175.932 100.96 175.932 103.624 L 175.932 103.624 L 175.932 103.624 Q 175.932 106.288 177.264 108.52 L 177.264 108.52 L 177.264 108.52 Q 178.596 110.752 180.846 112.066 L 180.846 112.066 L 180.846 112.066 Q 183.096 113.38 185.724 113.38 L 185.724 113.38 L 185.724 113.38 Q 188.352 113.38 190.566 112.066 L 190.566 112.066 L 190.566 112.066 Q 192.78 110.752 194.094 108.52 L 194.094 108.52 L 194.094 108.52 Q 195.408 106.288 195.408 103.624 L 195.408 103.624 L 195.408 103.624 Q 195.408 100.96 194.094 98.746 L 194.094 98.746 L 194.094 98.746 Q 192.78 96.532 190.566 95.236 L 190.566 95.236 L 190.566 95.236 Q 188.352 93.94 185.724 93.94 L 185.724 93.94 Z  M 206.928 101.32 L 206.928 101.32 Q 207.864 99.268 209.592 98.206 L 209.592 98.206 L 209.592 98.206 Q 211.32 97.144 213.696 97.108 L 213.696 97.108 L 213.696 100.348 L 213.696 100.348 Q 210.78 100.24 208.98 101.86 L 208.98 101.86 L 208.98 101.86 Q 207.18 103.48 206.928 106.216 L 206.928 106.216 L 206.928 116.26 L 203.58 116.26 L 203.58 97.216 L 206.928 97.216 L 206.928 101.32 Z  M 217.332 116.26 L 217.332 97.216 L 220.68 97.216 L 220.68 116.26 L 217.332 116.26 Z  M 218.988 89.62 L 218.988 89.62 Q 219.888 89.62 220.482 90.232 L 220.482 90.232 L 220.482 90.232 Q 221.076 90.844 221.076 91.78 L 221.076 91.78 L 221.076 91.78 Q 221.076 92.716 220.482 93.328 L 220.482 93.328 L 220.482 93.328 Q 219.888 93.94 218.988 93.94 L 218.988 93.94 L 218.988 93.94 Q 218.088 93.94 217.494 93.328 L 217.494 93.328 L 217.494 93.328 Q 216.9 92.716 216.9 91.78 L 216.9 91.78 L 216.9 91.78 Q 216.9 90.844 217.494 90.232 L 217.494 90.232 L 217.494 90.232 Q 218.088 89.62 218.988 89.62 L 218.988 89.62 Z  M 234.828 97.108 L 234.828 97.108 Q 239.256 97.108 241.524 99.718 L 241.524 99.718 L 241.524 99.718 Q 243.792 102.328 243.792 106.972 L 243.792 106.972 L 243.792 106.972 Q 243.792 107.692 243.756 108.052 L 243.756 108.052 L 228.708 108.052 L 228.708 108.052 Q 229.104 110.608 230.85 112.12 L 230.85 112.12 L 230.85 112.12 Q 232.596 113.632 235.152 113.632 L 235.152 113.632 L 235.152 113.632 Q 236.844 113.632 238.302 113.02 L 238.302 113.02 L 238.302 113.02 Q 239.76 112.408 240.84 111.292 L 240.84 111.292 L 242.676 113.2 L 242.676 113.2 Q 241.272 114.712 239.292 115.54 L 239.292 115.54 L 239.292 115.54 Q 237.312 116.368 234.9 116.368 L 234.9 116.368 L 234.9 116.368 Q 232.092 116.368 229.914 115.162 L 229.914 115.162 L 229.914 115.162 Q 227.736 113.956 226.53 111.76 L 226.53 111.76 L 226.53 111.76 Q 225.324 109.564 225.324 106.756 L 225.324 106.756 L 225.324 106.756 Q 225.324 103.948 226.53 101.77 L 226.53 101.77 L 226.53 101.77 Q 227.736 99.592 229.896 98.35 L 229.896 98.35 L 229.896 98.35 Q 232.056 97.108 234.828 97.108 L 234.828 97.108 Z  M 228.672 105.46 L 240.768 105.46 L 240.768 105.46 Q 240.624 102.868 239.04 101.374 L 239.04 101.374 L 239.04 101.374 Q 237.456 99.88 234.864 99.88 L 234.864 99.88 L 234.864 99.88 Q 232.344 99.88 230.67 101.392 L 230.67 101.392 L 230.67 101.392 Q 228.996 102.904 228.672 105.46 L 228.672 105.46 Z  M 258.948 97.108 L 258.948 97.108 Q 262.296 97.108 264.204 99.07 L 264.204 99.07 L 264.204 99.07 Q 266.112 101.032 266.112 104.488 L 266.112 104.488 L 266.112 116.26 L 262.764 116.26 L 262.764 105.388 L 262.764 105.388 Q 262.764 102.976 261.414 101.626 L 261.414 101.626 L 261.414 101.626 Q 260.064 100.276 257.688 100.276 L 257.688 100.276 L 257.688 100.276 Q 255.132 100.312 253.53 101.914 L 253.53 101.914 L 253.53 101.914 Q 251.928 103.516 251.712 106.072 L 251.712 106.072 L 251.712 116.26 L 248.364 116.26 L 248.364 97.216 L 251.712 97.216 L 251.712 101.248 L 251.712 101.248 Q 253.62 97.18 258.948 97.108 L 258.948 97.108 Z  M 281.412 112.408 L 282.312 115 L 282.312 115 Q 280.116 116.404 277.848 116.404 L 277.848 116.404 L 277.848 116.404 Q 275.58 116.404 274.176 115.054 L 274.176 115.054 L 274.176 115.054 Q 272.772 113.704 272.772 110.968 L 272.772 110.968 L 272.772 100.42 L 270.072 100.42 L 270.072 97.864 L 272.772 97.864 L 272.772 92.752 L 276.156 92.752 L 276.156 97.864 L 281.988 97.864 L 281.988 100.42 L 276.156 100.42 L 276.156 110.356 L 276.156 110.356 Q 276.156 111.94 276.732 112.624 L 276.732 112.624 L 276.732 112.624 Q 277.308 113.308 278.46 113.308 L 278.46 113.308 L 278.46 113.308 Q 279.828 113.308 281.412 112.408 L 281.412 112.408 Z  M 294.012 97.108 L 294.012 97.108 Q 298.44 97.108 300.708 99.718 L 300.708 99.718 L 300.708 99.718 Q 302.976 102.328 302.976 106.972 L 302.976 106.972 L 302.976 106.972 Q 302.976 107.692 302.94 108.052 L 302.94 108.052 L 287.892 108.052 L 287.892 108.052 Q 288.288 110.608 290.034 112.12 L 290.034 112.12 L 290.034 112.12 Q 291.78 113.632 294.336 113.632 L 294.336 113.632 L 294.336 113.632 Q 296.028 113.632 297.486 113.02 L 297.486 113.02 L 297.486 113.02 Q 298.944 112.408 300.024 111.292 L 300.024 111.292 L 301.86 113.2 L 301.86 113.2 Q 300.456 114.712 298.476 115.54 L 298.476 115.54 L 298.476 115.54 Q 296.496 116.368 294.084 116.368 L 294.084 116.368 L 294.084 116.368 Q 291.276 116.368 289.098 115.162 L 289.098 115.162 L 289.098 115.162 Q 286.92 113.956 285.714 111.76 L 285.714 111.76 L 285.714 111.76 Q 284.508 109.564 284.508 106.756 L 284.508 106.756 L 284.508 106.756 Q 284.508 103.948 285.714 101.77 L 285.714 101.77 L 285.714 101.77 Q 286.92 99.592 289.08 98.35 L 289.08 98.35 L 289.08 98.35 Q 291.24 97.108 294.012 97.108 L 294.012 97.108 Z  M 287.856 105.46 L 299.952 105.46 L 299.952 105.46 Q 299.808 102.868 298.224 101.374 L 298.224 101.374 L 298.224 101.374 Q 296.64 99.88 294.048 99.88 L 294.048 99.88 L 294.048 99.88 Q 291.528 99.88 289.854 101.392 L 289.854 101.392 L 289.854 101.392 Q 288.18 102.904 287.856 105.46 L 287.856 105.46 Z  M 321.948 89.548 L 325.296 89.548 L 325.296 116.26 L 321.948 116.26 L 321.948 112.48 L 321.948 112.48 Q 320.868 114.388 319.05 115.414 L 319.05 115.414 L 319.05 115.414 Q 317.232 116.44 314.82 116.44 L 314.82 116.44 L 314.82 116.44 Q 312.12 116.44 310.05 115.198 L 310.05 115.198 L 310.05 115.198 Q 307.98 113.956 306.828 111.742 L 306.828 111.742 L 306.828 111.742 Q 305.676 109.528 305.676 106.684 L 305.676 106.684 L 305.676 106.684 Q 305.676 103.876 306.828 101.698 L 306.828 101.698 L 306.828 101.698 Q 307.98 99.52 310.05 98.296 L 310.05 98.296 L 310.05 98.296 Q 312.12 97.072 314.784 97.072 L 314.784 97.072 L 314.784 97.072 Q 317.232 97.072 319.068 98.08 L 319.068 98.08 L 319.068 98.08 Q 320.904 99.088 321.948 100.996 L 321.948 100.996 L 321.948 89.548 Z  M 315.504 113.56 L 315.504 113.56 Q 317.376 113.56 318.834 112.696 L 318.834 112.696 L 318.834 112.696 Q 320.292 111.832 321.12 110.284 L 321.12 110.284 L 321.12 110.284 Q 321.948 108.736 321.948 106.792 L 321.948 106.792 L 321.948 106.792 Q 321.948 104.812 321.12 103.264 L 321.12 103.264 L 321.12 103.264 Q 320.292 101.716 318.834 100.852 L 318.834 100.852 L 318.834 100.852 Q 317.376 99.988 315.504 99.988 L 315.504 99.988 L 315.504 99.988 Q 313.632 99.988 312.174 100.87 L 312.174 100.87 L 312.174 100.87 Q 310.716 101.752 309.888 103.3 L 309.888 103.3 L 309.888 103.3 Q 309.06 104.848 309.06 106.792 L 309.06 106.792 L 309.06 106.792 Q 309.06 108.736 309.888 110.284 L 309.888 110.284 L 309.888 110.284 Q 310.716 111.832 312.174 112.696 L 312.174 112.696 L 312.174 112.696 Q 313.632 113.56 315.504 113.56 L 315.504 113.56 Z  M 57.456 90.844 L 57.456 90.844 Q 61.092 90.844 64.134 92.536 L 64.134 92.536 L 64.134 92.536 Q 67.176 94.228 68.94 97.162 L 68.94 97.162 L 68.94 97.162 Q 70.704 100.096 70.704 103.624 L 70.704 103.624 L 70.704 103.624 Q 70.704 107.152 68.94 110.122 L 68.94 110.122 L 68.94 110.122 Q 67.176 113.092 64.134 114.802 L 64.134 114.802 L 64.134 114.802 Q 61.092 116.512 57.456 116.512 L 57.456 116.512 L 57.456 116.512 Q 53.82 116.512 50.778 114.802 L 50.778 114.802 L 50.778 114.802 Q 47.736 113.092 45.972 110.122 L 45.972 110.122 L 45.972 110.122 Q 44.208 107.152 44.208 103.624 L 44.208 103.624 L 44.208 103.624 Q 44.208 100.096 45.972 97.162 L 45.972 97.162 L 45.972 97.162 Q 47.736 94.228 50.76 92.536 L 50.76 92.536 L 50.76 92.536 Q 53.784 90.844 57.456 90.844 L 57.456 90.844 Z  M 57.492 93.94 L 57.492 93.94 Q 54.864 93.94 52.614 95.236 L 52.614 95.236 L 52.614 95.236 Q 50.364 96.532 49.032 98.746 L 49.032 98.746 L 49.032 98.746 Q 47.7 100.96 47.7 103.624 L 47.7 103.624 L 47.7 103.624 Q 47.7 106.288 49.032 108.52 L 49.032 108.52 L 49.032 108.52 Q 50.364 110.752 52.614 112.066 L 52.614 112.066 L 52.614 112.066 Q 54.864 113.38 57.492 113.38 L 57.492 113.38 L 57.492 113.38 Q 60.12 113.38 62.334 112.066 L 62.334 112.066 L 62.334 112.066 Q 64.548 110.752 65.862 108.52 L 65.862 108.52 L 65.862 108.52 Q 67.176 106.288 67.176 103.624 L 67.176 103.624 L 67.176 103.624 Q 67.176 100.96 65.862 98.746 L 65.862 98.746 L 65.862 98.746 Q 64.548 96.532 62.334 95.236 L 62.334 95.236 L 62.334 95.236 Q 60.12 93.94 57.492 93.94 L 57.492 93.94 Z  M 85.932 97.108 L 85.932 97.108 Q 88.596 97.108 90.684 98.332 L 90.684 98.332 L 90.684 98.332 Q 92.772 99.556 93.924 101.752 L 93.924 101.752 L 93.924 101.752 Q 95.076 103.948 95.076 106.792 L 95.076 106.792 L 95.076 106.792 Q 95.076 109.6 93.942 111.778 L 93.942 111.778 L 93.942 111.778 Q 92.808 113.956 90.738 115.162 L 90.738 115.162 L 90.738 115.162 Q 88.668 116.368 86.004 116.368 L 86.004 116.368 L 86.004 116.368 Q 83.592 116.368 81.756 115.36 L 81.756 115.36 L 81.756 115.36 Q 79.92 114.352 78.876 112.48 L 78.876 112.48 L 78.876 116.26 L 75.528 116.26 L 75.528 89.548 L 78.876 89.548 L 78.876 100.996 L 78.876 100.996 Q 79.92 99.124 81.738 98.116 L 81.738 98.116 L 81.738 98.116 Q 83.556 97.108 85.932 97.108 L 85.932 97.108 Z  M 85.284 113.452 L 85.284 113.452 Q 87.12 113.452 88.578 112.588 L 88.578 112.588 L 88.578 112.588 Q 90.036 111.724 90.846 110.176 L 90.846 110.176 L 90.846 110.176 Q 91.656 108.628 91.656 106.684 L 91.656 106.684 L 91.656 106.684 Q 91.656 104.776 90.828 103.228 L 90.828 103.228 L 90.828 103.228 Q 90 101.68 88.56 100.816 L 88.56 100.816 L 88.56 100.816 Q 87.12 99.952 85.284 99.952 L 85.284 99.952 L 85.284 99.952 Q 83.448 99.952 81.99 100.816 L 81.99 100.816 L 81.99 100.816 Q 80.532 101.68 79.704 103.228 L 79.704 103.228 L 79.704 103.228 Q 78.876 104.776 78.876 106.684 L 78.876 106.684 L 78.876 106.684 Q 78.876 108.664 79.704 110.194 L 79.704 110.194 L 79.704 110.194 Q 80.532 111.724 81.99 112.588 L 81.99 112.588 L 81.99 112.588 Q 83.448 113.452 85.284 113.452 L 85.284 113.452 Z  M 95.148 120.148 L 95.148 120.148 Q 95.94 120.436 96.876 120.508 L 96.876 120.508 L 96.876 120.508 Q 98.244 120.544 98.964 119.572 L 98.964 119.572 L 98.964 119.572 Q 99.684 118.6 99.684 116.728 L 99.684 116.728 L 99.684 97.216 L 103.068 97.216 L 103.068 117.196 L 103.068 117.196 Q 103.068 120.148 101.646 121.75 L 101.646 121.75 L 101.646 121.75 Q 100.224 123.352 97.632 123.352 L 97.632 123.352 L 97.632 123.352 Q 96.012 123.352 94.356 122.704 L 94.356 122.704 L 95.148 120.148 Z  M 101.34 89.62 L 101.34 89.62 Q 102.24 89.62 102.834 90.232 L 102.834 90.232 L 102.834 90.232 Q 103.428 90.844 103.428 91.78 L 103.428 91.78 L 103.428 91.78 Q 103.428 92.716 102.834 93.328 L 102.834 93.328 L 102.834 93.328 Q 102.24 93.94 101.34 93.94 L 101.34 93.94 L 101.34 93.94 Q 100.44 93.94 99.846 93.328 L 99.846 93.328 L 99.846 93.328 Q 99.252 92.716 99.252 91.78 L 99.252 91.78 L 99.252 91.78 Q 99.252 90.844 99.846 90.232 L 99.846 90.232 L 99.846 90.232 Q 100.44 89.62 101.34 89.62 L 101.34 89.62 Z  M 116.856 97.108 L 116.856 97.108 Q 121.284 97.108 123.552 99.718 L 123.552 99.718 L 123.552 99.718 Q 125.82 102.328 125.82 106.972 L 125.82 106.972 L 125.82 106.972 Q 125.82 107.692 125.784 108.052 L 125.784 108.052 L 110.736 108.052 L 110.736 108.052 Q 111.132 110.608 112.878 112.12 L 112.878 112.12 L 112.878 112.12 Q 114.624 113.632 117.18 113.632 L 117.18 113.632 L 117.18 113.632 Q 118.872 113.632 120.33 113.02 L 120.33 113.02 L 120.33 113.02 Q 121.788 112.408 122.868 111.292 L 122.868 111.292 L 124.704 113.2 L 124.704 113.2 Q 123.3 114.712 121.32 115.54 L 121.32 115.54 L 121.32 115.54 Q 119.34 116.368 116.928 116.368 L 116.928 116.368 L 116.928 116.368 Q 114.12 116.368 111.942 115.162 L 111.942 115.162 L 111.942 115.162 Q 109.764 113.956 108.558 111.76 L 108.558 111.76 L 108.558 111.76 Q 107.352 109.564 107.352 106.756 L 107.352 106.756 L 107.352 106.756 Q 107.352 103.948 108.558 101.77 L 108.558 101.77 L 108.558 101.77 Q 109.764 99.592 111.924 98.35 L 111.924 98.35 L 111.924 98.35 Q 114.084 97.108 116.856 97.108 L 116.856 97.108 Z  M 110.7 105.46 L 122.796 105.46 L 122.796 105.46 Q 122.652 102.868 121.068 101.374 L 121.068 101.374 L 121.068 101.374 Q 119.484 99.88 116.892 99.88 L 116.892 99.88 L 116.892 99.88 Q 114.372 99.88 112.698 101.392 L 112.698 101.392 L 112.698 101.392 Q 111.024 102.904 110.7 105.46 L 110.7 105.46 Z  M 143.748 102.292 L 143.748 102.292 Q 141.48 100.096 138.312 100.096 L 138.312 100.096 L 138.312 100.096 Q 136.44 100.096 134.982 100.924 L 134.982 100.924 L 134.982 100.924 Q 133.524 101.752 132.696 103.264 L 132.696 103.264 L 132.696 103.264 Q 131.868 104.776 131.868 106.756 L 131.868 106.756 L 131.868 106.756 Q 131.868 108.736 132.678 110.248 L 132.678 110.248 L 132.678 110.248 Q 133.488 111.76 134.91 112.606 L 134.91 112.606 L 134.91 112.606 Q 136.332 113.452 138.168 113.452 L 138.168 113.452 L 138.168 113.452 Q 140.004 113.452 141.48 112.84 L 141.48 112.84 L 141.48 112.84 Q 142.956 112.228 143.928 111.076 L 143.928 111.076 L 145.836 113.02 L 145.836 113.02 Q 144.54 114.64 142.542 115.504 L 142.542 115.504 L 142.542 115.504 Q 140.544 116.368 138.024 116.368 L 138.024 116.368 L 138.024 116.368 Q 135.252 116.368 133.092 115.144 L 133.092 115.144 L 133.092 115.144 Q 130.932 113.92 129.726 111.742 L 129.726 111.742 L 129.726 111.742 Q 128.52 109.564 128.52 106.756 L 128.52 106.756 L 128.52 106.756 Q 128.52 103.948 129.726 101.752 L 129.726 101.752 L 129.726 101.752 Q 130.932 99.556 133.092 98.332 L 133.092 98.332 L 133.092 98.332 Q 135.252 97.108 138.024 97.108 L 138.024 97.108 L 138.024 97.108 Q 140.436 97.108 142.362 97.846 L 142.362 97.846 L 142.362 97.846 Q 144.288 98.584 145.584 99.988 L 145.584 99.988 L 143.748 102.292 Z  M 159.948 112.408 L 160.848 115 L 160.848 115 Q 158.652 116.404 156.384 116.404 L 156.384 116.404 L 156.384 116.404 Q 154.116 116.404 152.712 115.054 L 152.712 115.054 L 152.712 115.054 Q 151.308 113.704 151.308 110.968 L 151.308 110.968 L 151.308 100.42 L 148.608 100.42 L 148.608 97.864 L 151.308 97.864 L 151.308 92.752 L 154.692 92.752 L 154.692 97.864 L 160.524 97.864 L 160.524 100.42 L 154.692 100.42 L 154.692 110.356 L 154.692 110.356 Q 154.692 111.94 155.268 112.624 L 155.268 112.624 L 155.268 112.624 Q 155.844 113.308 156.996 113.308 L 156.996 113.308 L 156.996 113.308 Q 158.364 113.308 159.948 112.408 L 159.948 112.408 Z " fill-rule="evenodd" fill="rgb(220,20,60)"/><path d=" M 143.16 26.768 L 143.16 26.768 Q 149.22 26.768 154.29 29.588 L 154.29 29.588 L 154.29 29.588 Q 159.36 32.408 162.3 37.298 L 162.3 37.298 L 162.3 37.298 Q 165.24 42.188 165.24 48.068 L 165.24 48.068 L 165.24 48.068 Q 165.24 53.948 162.3 58.898 L 162.3 58.898 L 162.3 58.898 Q 159.36 63.848 154.29 66.698 L 154.29 66.698 L 154.29 66.698 Q 149.22 69.548 143.16 69.548 L 143.16 69.548 L 143.16 69.548 Q 137.1 69.548 132.03 66.698 L 132.03 66.698 L 132.03 66.698 Q 126.96 63.848 124.02 58.898 L 124.02 58.898 L 124.02 58.898 Q 121.08 53.948 121.08 48.068 L 121.08 48.068 L 121.08 48.068 Q 121.08 42.188 124.02 37.298 L 124.02 37.298 L 124.02 37.298 Q 126.96 32.408 132 29.588 L 132 29.588 L 132 29.588 Q 137.04 26.768 143.16 26.768 L 143.16 26.768 Z  M 143.22 31.928 L 143.22 31.928 Q 138.84 31.928 135.09 34.088 L 135.09 34.088 L 135.09 34.088 Q 131.34 36.248 129.12 39.938 L 129.12 39.938 L 129.12 39.938 Q 126.9 43.628 126.9 48.068 L 126.9 48.068 L 126.9 48.068 Q 126.9 52.508 129.12 56.228 L 129.12 56.228 L 129.12 56.228 Q 131.34 59.948 135.09 62.138 L 135.09 62.138 L 135.09 62.138 Q 138.84 64.328 143.22 64.328 L 143.22 64.328 L 143.22 64.328 Q 147.6 64.328 151.29 62.138 L 151.29 62.138 L 151.29 62.138 Q 154.98 59.948 157.17 56.228 L 157.17 56.228 L 157.17 56.228 Q 159.36 52.508 159.36 48.068 L 159.36 48.068 L 159.36 48.068 Q 159.36 43.628 157.17 39.938 L 157.17 39.938 L 157.17 39.938 Q 154.98 36.248 151.29 34.088 L 151.29 34.088 L 151.29 34.088 Q 147.6 31.928 143.22 31.928 L 143.22 31.928 Z  M 191.88 26.768 L 191.88 26.768 Q 197.94 26.768 203.01 29.588 L 203.01 29.588 L 203.01 29.588 Q 208.08 32.408 211.02 37.298 L 211.02 37.298 L 211.02 37.298 Q 213.96 42.188 213.96 48.068 L 213.96 48.068 L 213.96 48.068 Q 213.96 53.948 211.02 58.898 L 211.02 58.898 L 211.02 58.898 Q 208.08 63.848 203.01 66.698 L 203.01 66.698 L 203.01 66.698 Q 197.94 69.548 191.88 69.548 L 191.88 69.548 L 191.88 69.548 Q 185.82 69.548 180.75 66.698 L 180.75 66.698 L 180.75 66.698 Q 175.68 63.848 172.74 58.898 L 172.74 58.898 L 172.74 58.898 Q 169.8 53.948 169.8 48.068 L 169.8 48.068 L 169.8 48.068 Q 169.8 42.188 172.74 37.298 L 172.74 37.298 L 172.74 37.298 Q 175.68 32.408 180.72 29.588 L 180.72 29.588 L 180.72 29.588 Q 185.76 26.768 191.88 26.768 L 191.88 26.768 Z  M 191.94 31.928 L 191.94 31.928 Q 187.56 31.928 183.81 34.088 L 183.81 34.088 L 183.81 34.088 Q 180.06 36.248 177.84 39.938 L 177.84 39.938 L 177.84 39.938 Q 175.62 43.628 175.62 48.068 L 175.62 48.068 L 175.62 48.068 Q 175.62 52.508 177.84 56.228 L 177.84 56.228 L 177.84 56.228 Q 180.06 59.948 183.81 62.138 L 183.81 62.138 L 183.81 62.138 Q 187.56 64.328 191.94 64.328 L 191.94 64.328 L 191.94 64.328 Q 196.32 64.328 200.01 62.138 L 200.01 62.138 L 200.01 62.138 Q 203.7 59.948 205.89 56.228 L 205.89 56.228 L 205.89 56.228 Q 208.08 52.508 208.08 48.068 L 208.08 48.068 L 208.08 48.068 Q 208.08 43.628 205.89 39.938 L 205.89 39.938 L 205.89 39.938 Q 203.7 36.248 200.01 34.088 L 200.01 34.088 L 200.01 34.088 Q 196.32 31.928 191.94 31.928 L 191.94 31.928 Z  M 252.66 37.208 L 252.66 37.208 Q 250.26 34.688 247.08 33.278 L 247.08 33.278 L 247.08 33.278 Q 243.9 31.868 240.54 31.868 L 240.54 31.868 L 240.54 31.868 Q 236.1 31.868 232.38 34.028 L 232.38 34.028 L 232.38 34.028 Q 228.66 36.188 226.5 39.878 L 226.5 39.878 L 226.5 39.878 Q 224.34 43.568 224.34 48.008 L 224.34 48.008 L 224.34 48.008 Q 224.34 52.388 226.5 56.108 L 226.5 56.108 L 226.5 56.108 Q 228.66 59.828 232.38 61.988 L 232.38 61.988 L 232.38 61.988 Q 236.1 64.148 240.54 64.148 L 240.54 64.148 L 240.54 64.148 Q 243.84 64.148 247.02 62.798 L 247.02 62.798 L 247.02 62.798 Q 250.2 61.448 252.66 59.108 L 252.66 59.108 L 256.14 62.888 L 256.14 62.888 Q 252.96 66.008 248.76 67.778 L 248.76 67.778 L 248.76 67.778 Q 244.56 69.548 240.24 69.548 L 240.24 69.548 L 240.24 69.548 Q 234.24 69.548 229.26 66.698 L 229.26 66.698 L 229.26 66.698 Q 224.28 63.848 221.4 58.928 L 221.4 58.928 L 221.4 58.928 Q 218.52 54.008 218.52 48.068 L 218.52 48.068 L 218.52 48.068 Q 218.52 42.188 221.43 37.298 L 221.43 37.298 L 221.43 37.298 Q 224.34 32.408 229.38 29.588 L 229.38 29.588 L 229.38 29.588 Q 234.42 26.768 240.48 26.768 L 240.48 26.768 L 240.48 26.768 Q 244.86 26.768 248.97 28.418 L 248.97 28.418 L 248.97 28.418 Q 253.08 30.068 256.08 33.068 L 256.08 33.068 L 252.66 37.208 Z  M 288.72 35.888 L 288.72 35.888 Q 285.78 34.028 282.63 33.098 L 282.63 33.098 L 282.63 33.098 Q 279.48 32.168 276.84 32.168 L 276.84 32.168 L 276.84 32.168 Q 273.18 32.168 270.99 33.578 L 270.99 33.578 L 270.99 33.578 Q 268.8 34.988 268.8 37.448 L 268.8 37.448 L 268.8 37.448 Q 268.8 39.668 270.12 41.078 L 270.12 41.078 L 270.12 41.078 Q 271.44 42.488 273.36 43.298 L 273.36 43.298 L 273.36 43.298 Q 275.28 44.108 278.7 45.188 L 278.7 45.188 L 278.7 45.188 Q 282.96 46.508 285.6 47.708 L 285.6 47.708 L 285.6 47.708 Q 288.24 48.908 290.1 51.278 L 290.1 51.278 L 290.1 51.278 Q 291.96 53.648 291.96 57.548 L 291.96 57.548 L 291.96 57.548 Q 291.96 61.148 290.01 63.848 L 290.01 63.848 L 290.01 63.848 Q 288.06 66.548 284.55 68.018 L 284.55 68.018 L 284.55 68.018 Q 281.04 69.488 276.48 69.488 L 276.48 69.488 L 276.48 69.488 Q 271.86 69.488 267.48 67.688 L 267.48 67.688 L 267.48 67.688 Q 263.1 65.888 259.92 62.888 L 259.92 62.888 L 262.5 57.908 L 262.5 57.908 Q 265.5 60.848 269.25 62.438 L 269.25 62.438 L 269.25 62.438 Q 273 64.028 276.54 64.028 L 276.54 64.028 L 276.54 64.028 Q 280.74 64.028 283.17 62.378 L 283.17 62.378 L 283.17 62.378 Q 285.6 60.728 285.6 57.908 L 285.6 57.908 L 285.6 57.908 Q 285.6 55.688 284.28 54.248 L 284.28 54.248 L 284.28 54.248 Q 282.96 52.808 280.95 51.968 L 280.95 51.968 L 280.95 51.968 Q 278.94 51.128 275.52 50.108 L 275.52 50.108 L 275.52 50.108 Q 271.32 48.848 268.68 47.648 L 268.68 47.648 L 268.68 47.648 Q 266.04 46.448 264.21 44.108 L 264.21 44.108 L 264.21 44.108 Q 262.38 41.768 262.38 37.928 L 262.38 37.928 L 262.38 37.928 Q 262.38 34.568 264.24 31.988 L 264.24 31.988 L 264.24 31.988 Q 266.1 29.408 269.46 28.028 L 269.46 28.028 L 269.46 28.028 Q 272.82 26.648 277.26 26.648 L 277.26 26.648 L 277.26 26.648 Q 281.04 26.648 284.67 27.758 L 284.67 27.758 L 284.67 27.758 Q 288.3 28.868 291.12 30.728 L 291.12 30.728 L 288.72 35.888 Z  M 325.68 35.888 L 325.68 35.888 Q 322.74 34.028 319.59 33.098 L 319.59 33.098 L 319.59 33.098 Q 316.44 32.168 313.8 32.168 L 313.8 32.168 L 313.8 32.168 Q 310.14 32.168 307.95 33.578 L 307.95 33.578 L 307.95 33.578 Q 305.76 34.988 305.76 37.448 L 305.76 37.448 L 305.76 37.448 Q 305.76 39.668 307.08 41.078 L 307.08 41.078 L 307.08 41.078 Q 308.4 42.488 310.32 43.298 L 310.32 43.298 L 310.32 43.298 Q 312.24 44.108 315.66 45.188 L 315.66 45.188 L 315.66 45.188 Q 319.92 46.508 322.56 47.708 L 322.56 47.708 L 322.56 47.708 Q 325.2 48.908 327.06 51.278 L 327.06 51.278 L 327.06 51.278 Q 328.92 53.648 328.92 57.548 L 328.92 57.548 L 328.92 57.548 Q 328.92 61.148 326.97 63.848 L 326.97 63.848 L 326.97 63.848 Q 325.02 66.548 321.51 68.018 L 321.51 68.018 L 321.51 68.018 Q 318 69.488 313.44 69.488 L 313.44 69.488 L 313.44 69.488 Q 308.82 69.488 304.44 67.688 L 304.44 67.688 L 304.44 67.688 Q 300.06 65.888 296.88 62.888 L 296.88 62.888 L 299.46 57.908 L 299.46 57.908 Q 302.46 60.848 306.21 62.438 L 306.21 62.438 L 306.21 62.438 Q 309.96 64.028 313.5 64.028 L 313.5 64.028 L 313.5 64.028 Q 317.7 64.028 320.13 62.378 L 320.13 62.378 L 320.13 62.378 Q 322.56 60.728 322.56 57.908 L 322.56 57.908 L 322.56 57.908 Q 322.56 55.688 321.24 54.248 L 321.24 54.248 L 321.24 54.248 Q 319.92 52.808 317.91 51.968 L 317.91 51.968 L 317.91 51.968 Q 315.9 51.128 312.48 50.108 L 312.48 50.108 L 312.48 50.108 Q 308.28 48.848 305.64 47.648 L 305.64 47.648 L 305.64 47.648 Q 303 46.448 301.17 44.108 L 301.17 44.108 L 301.17 44.108 Q 299.34 41.768 299.34 37.928 L 299.34 37.928 L 299.34 37.928 Q 299.34 34.568 301.2 31.988 L 301.2 31.988 L 301.2 31.988 Q 303.06 29.408 306.42 28.028 L 306.42 28.028 L 306.42 28.028 Q 309.78 26.648 314.22 26.648 L 314.22 26.648 L 314.22 26.648 Q 318 26.648 321.63 27.758 L 321.63 27.758 L 321.63 27.758 Q 325.26 28.868 328.08 30.728 L 328.08 30.728 L 325.68 35.888 Z " fill-rule="evenodd" fill="rgb(220,20,60)"/></g></svg>