<?xml version="1.0" standalone="no"?><!-- Generator: Gravit.io --><svg xmlns="http://www.w3.org/2000/svg" xmlns:xlink="http://www.w3.org/1999/xlink" style="isolation:isolate" viewBox="0 0 450 150" width="450" height="150"><defs><clipPath id="_clipPath_on6PKfoGSctPddUhhHaEPzpIXjBDxlEd"><rect width="450" height="150"/></clipPath></defs><g clip-path="url(#_clipPath_on6PKfoGSctPddUhhHaEPzpIXjBDxlEd)"><path d=" M 356.49 122.846 L 356.49 122.846 Q 355.05 121.334 353.142 120.488 L 353.142 120.488 L 353.142 120.488 Q 351.234 119.642 349.218 119.642 L 349.218 119.642 L 349.218 119.642 Q 346.554 119.642 344.322 120.938 L 344.322 120.938 L 344.322 120.938 Q 342.09 122.234 340.794 124.448 L 340.794 124.448 L 340.794 124.448 Q 339.498 126.662 339.498 129.326 L 339.498 129.326 L 339.498 129.326 Q 339.498 131.954 340.794 134.186 L 340.794 134.186 L 340.794 134.186 Q 342.09 136.418 344.322 137.714 L 344.322 137.714 L 344.322 137.714 Q 346.554 139.01 349.218 139.01 L 349.218 139.01 L 349.218 139.01 Q 351.198 139.01 353.106 138.2 L 353.106 138.2 L 353.106 138.2 Q 355.014 137.39 356.49 135.986 L 356.49 135.986 L 358.578 138.254 L 358.578 138.254 Q 356.67 140.126 354.15 141.188 L 354.15 141.188 L 354.15 141.188 Q 351.63 142.25 349.038 142.25 L 349.038 142.25 L 349.038 142.25 Q 345.438 142.25 342.45 140.54 L 342.45 140.54 L 342.45 140.54 Q 339.462 138.83 337.734 135.878 L 337.734 135.878 L 337.734 135.878 Q 336.006 132.926 336.006 129.362 L 336.006 129.362 L 336.006 129.362 Q 336.006 125.834 337.752 122.9 L 337.752 122.9 L 337.752 122.9 Q 339.498 119.966 342.522 118.274 L 342.522 118.274 L 342.522 118.274 Q 345.546 116.582 349.182 116.582 L 349.182 116.582 L 349.182 116.582 Q 351.81 116.582 354.276 117.572 L 354.276 117.572 L 354.276 117.572 Q 356.742 118.562 358.542 120.362 L 358.542 120.362 L 356.49 122.846 Z  M 378.126 122.054 L 378.126 122.054 Q 376.362 120.938 374.472 120.38 L 374.472 120.38 L 374.472 120.38 Q 372.582 119.822 370.998 119.822 L 370.998 119.822 L 370.998 119.822 Q 368.802 119.822 367.488 120.668 L 367.488 120.668 L 367.488 120.668 Q 366.174 121.514 366.174 122.99 L 366.174 122.99 L 366.174 122.99 Q 366.174 124.322 366.966 125.168 L 366.966 125.168 L 366.966 125.168 Q 367.758 126.014 368.91 126.5 L 368.91 126.5 L 368.91 126.5 Q 370.062 126.986 372.114 127.634 L 372.114 127.634 L 372.114 127.634 Q 374.67 128.426 376.254 129.146 L 376.254 129.146 L 376.254 129.146 Q 377.838 129.866 378.954 131.288 L 378.954 131.288 L 378.954 131.288 Q 380.07 132.71 380.07 135.05 L 380.07 135.05 L 380.07 135.05 Q 380.07 137.21 378.9 138.83 L 378.9 138.83 L 378.9 138.83 Q 377.73 140.45 375.624 141.332 L 375.624 141.332 L 375.624 141.332 Q 373.518 142.214 370.782 142.214 L 370.782 142.214 L 370.782 142.214 Q 368.01 142.214 365.382 141.134 L 365.382 141.134 L 365.382 141.134 Q 362.754 140.054 360.846 138.254 L 360.846 138.254 L 362.394 135.266 L 362.394 135.266 Q 364.194 137.03 366.444 137.984 L 366.444 137.984 L 366.444 137.984 Q 368.694 138.938 370.818 138.938 L 370.818 138.938 L 370.818 138.938 Q 373.338 138.938 374.796 137.948 L 374.796 137.948 L 374.796 137.948 Q 376.254 136.958 376.254 135.266 L 376.254 135.266 L 376.254 135.266 Q 376.254 133.934 375.462 133.07 L 375.462 133.07 L 375.462 133.07 Q 374.67 132.206 373.464 131.702 L 373.464 131.702 L 373.464 131.702 Q 372.258 131.198 370.206 130.586 L 370.206 130.586 L 370.206 130.586 Q 367.686 129.83 366.102 129.11 L 366.102 129.11 L 366.102 129.11 Q 364.518 128.39 363.42 126.986 L 363.42 126.986 L 363.42 126.986 Q 362.322 125.582 362.322 123.278 L 362.322 123.278 L 362.322 123.278 Q 362.322 121.262 363.438 119.714 L 363.438 119.714 L 363.438 119.714 Q 364.554 118.166 366.57 117.338 L 366.57 117.338 L 366.57 117.338 Q 368.586 116.51 371.25 116.51 L 371.25 116.51 L 371.25 116.51 Q 373.518 116.51 375.696 117.176 L 375.696 117.176 L 375.696 117.176 Q 377.874 117.842 379.566 118.958 L 379.566 118.958 L 378.126 122.054 Z  M 400.302 122.054 L 400.302 122.054 Q 398.538 120.938 396.648 120.38 L 396.648 120.38 L 396.648 120.38 Q 394.758 119.822 393.174 119.822 L 393.174 119.822 L 393.174 119.822 Q 390.978 119.822 389.664 120.668 L 389.664 120.668 L 389.664 120.668 Q 388.35 121.514 388.35 122.99 L 388.35 122.99 L 388.35 122.99 Q 388.35 124.322 389.142 125.168 L 389.142 125.168 L 389.142 125.168 Q 389.934 126.014 391.086 126.5 L 391.086 126.5 L 391.086 126.5 Q 392.238 126.986 394.29 127.634 L 394.29 127.634 L 394.29 127.634 Q 396.846 128.426 398.43 129.146 L 398.43 129.146 L 398.43 129.146 Q 400.014 129.866 401.13 131.288 L 401.13 131.288 L 401.13 131.288 Q 402.246 132.71 402.246 135.05 L 402.246 135.05 L 402.246 135.05 Q 402.246 137.21 401.076 138.83 L 401.076 138.83 L 401.076 138.83 Q 399.906 140.45 397.8 141.332 L 397.8 141.332 L 397.8 141.332 Q 395.694 142.214 392.958 142.214 L 392.958 142.214 L 392.958 142.214 Q 390.186 142.214 387.558 141.134 L 387.558 141.134 L 387.558 141.134 Q 384.93 140.054 383.022 138.254 L 383.022 138.254 L 384.57 135.266 L 384.57 135.266 Q 386.37 137.03 388.62 137.984 L 388.62 137.984 L 388.62 137.984 Q 390.87 138.938 392.994 138.938 L 392.994 138.938 L 392.994 138.938 Q 395.514 138.938 396.972 137.948 L 396.972 137.948 L 396.972 137.948 Q 398.43 136.958 398.43 135.266 L 398.43 135.266 L 398.43 135.266 Q 398.43 133.934 397.638 133.07 L 397.638 133.07 L 397.638 133.07 Q 396.846 132.206 395.64 131.702 L 395.64 131.702 L 395.64 131.702 Q 394.434 131.198 392.382 130.586 L 392.382 130.586 L 392.382 130.586 Q 389.862 129.83 388.278 129.11 L 388.278 129.11 L 388.278 129.11 Q 386.694 128.39 385.596 126.986 L 385.596 126.986 L 385.596 126.986 Q 384.498 125.582 384.498 123.278 L 384.498 123.278 L 384.498 123.278 Q 384.498 121.262 385.614 119.714 L 385.614 119.714 L 385.614 119.714 Q 386.73 118.166 388.746 117.338 L 388.746 117.338 L 388.746 117.338 Q 390.762 116.51 393.426 116.51 L 393.426 116.51 L 393.426 116.51 Q 395.694 116.51 397.872 117.176 L 397.872 117.176 L 397.872 117.176 Q 400.05 117.842 401.742 118.958 L 401.742 118.958 L 400.302 122.054 Z  M 287.082 118.058 L 287.082 118.058 Q 285.786 118.058 284.922 118.85 L 284.922 118.85 L 284.922 118.85 Q 284.058 119.642 284.058 121.118 L 284.058 121.118 L 284.058 123.602 L 289.314 123.602 L 289.314 126.158 L 284.058 126.158 L 284.058 141.998 L 280.71 141.998 L 280.71 126.158 L 278.226 126.158 L 278.226 123.602 L 280.71 123.602 L 280.71 121.55 L 280.71 121.55 Q 280.71 119.462 281.592 118.004 L 281.592 118.004 L 281.592 118.004 Q 282.474 116.546 283.914 115.808 L 283.914 115.808 L 283.914 115.808 Q 285.354 115.07 287.01 115.07 L 287.01 115.07 L 287.01 115.07 Q 288.594 115.07 290.322 115.934 L 290.322 115.934 L 289.53 118.67 L 289.53 118.67 Q 288.234 118.058 287.082 118.058 L 287.082 118.058 Z  M 300.294 122.846 L 300.294 122.846 Q 303.138 122.846 305.352 124.07 L 305.352 124.07 L 305.352 124.07 Q 307.566 125.294 308.808 127.472 L 308.808 127.472 L 308.808 127.472 Q 310.05 129.65 310.05 132.458 L 310.05 132.458 L 310.05 132.458 Q 310.05 135.266 308.808 137.462 L 308.808 137.462 L 308.808 137.462 Q 307.566 139.658 305.352 140.882 L 305.352 140.882 L 305.352 140.882 Q 303.138 142.106 300.294 142.106 L 300.294 142.106 L 300.294 142.106 Q 297.414 142.106 295.2 140.882 L 295.2 140.882 L 295.2 140.882 Q 292.986 139.658 291.744 137.48 L 291.744 137.48 L 291.744 137.48 Q 290.502 135.302 290.502 132.458 L 290.502 132.458 L 290.502 132.458 Q 290.502 129.65 291.744 127.472 L 291.744 127.472 L 291.744 127.472 Q 292.986 125.294 295.2 124.07 L 295.2 124.07 L 295.2 124.07 Q 297.414 122.846 300.294 122.846 L 300.294 122.846 Z  M 300.294 125.762 L 300.294 125.762 Q 298.422 125.762 296.964 126.626 L 296.964 126.626 L 296.964 126.626 Q 295.506 127.49 294.696 129.02 L 294.696 129.02 L 294.696 129.02 Q 293.886 130.55 293.886 132.494 L 293.886 132.494 L 293.886 132.494 Q 293.886 134.474 294.696 136.022 L 294.696 136.022 L 294.696 136.022 Q 295.506 137.57 296.964 138.416 L 296.964 138.416 L 296.964 138.416 Q 298.422 139.262 300.294 139.262 L 300.294 139.262 L 300.294 139.262 Q 302.13 139.262 303.588 138.416 L 303.588 138.416 L 303.588 138.416 Q 305.046 137.57 305.856 136.022 L 305.856 136.022 L 305.856 136.022 Q 306.666 134.474 306.666 132.494 L 306.666 132.494 L 306.666 132.494 Q 306.666 130.55 305.856 129.02 L 305.856 129.02 L 305.856 129.02 Q 305.046 127.49 303.588 126.626 L 303.588 126.626 L 303.588 126.626 Q 302.13 125.762 300.294 125.762 L 300.294 125.762 Z  M 318.078 127.058 L 318.078 127.058 Q 319.014 125.006 320.742 123.944 L 320.742 123.944 L 320.742 123.944 Q 322.47 122.882 324.846 122.846 L 324.846 122.846 L 324.846 126.086 L 324.846 126.086 Q 321.93 125.978 320.13 127.598 L 320.13 127.598 L 320.13 127.598 Q 318.33 129.218 318.078 131.954 L 318.078 131.954 L 318.078 141.998 L 314.73 141.998 L 314.73 122.954 L 318.078 122.954 L 318.078 127.058 Z  M 71.226 141.998 L 67.482 141.998 L 64.818 135.878 L 51.534 135.878 L 48.906 141.998 L 45.27 141.998 L 56.466 116.798 L 60.066 116.798 L 71.226 141.998 Z  M 58.158 120.506 L 52.902 132.746 L 63.486 132.746 L 58.158 120.506 Z  M 77.922 127.058 L 77.922 127.058 Q 78.858 125.006 80.586 123.944 L 80.586 123.944 L 80.586 123.944 Q 82.314 122.882 84.69 122.846 L 84.69 122.846 L 84.69 126.086 L 84.69 126.086 Q 81.774 125.978 79.974 127.598 L 79.974 127.598 L 79.974 127.598 Q 78.174 129.218 77.922 131.954 L 77.922 131.954 L 77.922 141.998 L 74.574 141.998 L 74.574 122.954 L 77.922 122.954 L 77.922 127.058 Z  M 101.682 128.03 L 101.682 128.03 Q 99.414 125.834 96.246 125.834 L 96.246 125.834 L 96.246 125.834 Q 94.374 125.834 92.916 126.662 L 92.916 126.662 L 92.916 126.662 Q 91.458 127.49 90.63 129.002 L 90.63 129.002 L 90.63 129.002 Q 89.802 130.514 89.802 132.494 L 89.802 132.494 L 89.802 132.494 Q 89.802 134.474 90.612 135.986 L 90.612 135.986 L 90.612 135.986 Q 91.422 137.498 92.844 138.344 L 92.844 138.344 L 92.844 138.344 Q 94.266 139.19 96.102 139.19 L 96.102 139.19 L 96.102 139.19 Q 97.938 139.19 99.414 138.578 L 99.414 138.578 L 99.414 138.578 Q 100.89 137.966 101.862 136.814 L 101.862 136.814 L 103.77 138.758 L 103.77 138.758 Q 102.474 140.378 100.476 141.242 L 100.476 141.242 L 100.476 141.242 Q 98.478 142.106 95.958 142.106 L 95.958 142.106 L 95.958 142.106 Q 93.186 142.106 91.026 140.882 L 91.026 140.882 L 91.026 140.882 Q 88.866 139.658 87.66 137.48 L 87.66 137.48 L 87.66 137.48 Q 86.454 135.302 86.454 132.494 L 86.454 132.494 L 86.454 132.494 Q 86.454 129.686 87.66 127.49 L 87.66 127.49 L 87.66 127.49 Q 88.866 125.294 91.026 124.07 L 91.026 124.07 L 91.026 124.07 Q 93.186 122.846 95.958 122.846 L 95.958 122.846 L 95.958 122.846 Q 98.37 122.846 100.296 123.584 L 100.296 123.584 L 100.296 123.584 Q 102.222 124.322 103.518 125.726 L 103.518 125.726 L 101.682 128.03 Z  M 119.358 122.846 L 119.358 122.846 Q 122.706 122.846 124.614 124.808 L 124.614 124.808 L 124.614 124.808 Q 126.522 126.77 126.522 130.226 L 126.522 130.226 L 126.522 141.998 L 123.174 141.998 L 123.174 131.126 L 123.174 131.126 Q 123.174 128.714 121.824 127.364 L 121.824 127.364 L 121.824 127.364 Q 120.474 126.014 118.098 126.014 L 118.098 126.014 L 118.098 126.014 Q 115.326 126.05 113.706 127.886 L 113.706 127.886 L 113.706 127.886 Q 112.086 129.722 112.086 132.638 L 112.086 132.638 L 112.086 141.998 L 108.738 141.998 L 108.738 115.286 L 112.086 115.286 L 112.086 127.058 L 112.086 127.058 Q 113.994 122.918 119.358 122.846 L 119.358 122.846 Z  M 132.498 141.998 L 132.498 122.954 L 135.846 122.954 L 135.846 141.998 L 132.498 141.998 Z  M 134.154 115.358 L 134.154 115.358 Q 135.054 115.358 135.648 115.97 L 135.648 115.97 L 135.648 115.97 Q 136.242 116.582 136.242 117.518 L 136.242 117.518 L 136.242 117.518 Q 136.242 118.454 135.648 119.066 L 135.648 119.066 L 135.648 119.066 Q 135.054 119.678 134.154 119.678 L 134.154 119.678 L 134.154 119.678 Q 133.254 119.678 132.66 119.066 L 132.66 119.066 L 132.66 119.066 Q 132.066 118.454 132.066 117.518 L 132.066 117.518 L 132.066 117.518 Q 132.066 116.582 132.66 115.97 L 132.66 115.97 L 132.66 115.97 Q 133.254 115.358 134.154 115.358 L 134.154 115.358 Z  M 151.686 138.146 L 152.586 140.738 L 152.586 140.738 Q 150.39 142.142 148.122 142.142 L 148.122 142.142 L 148.122 142.142 Q 145.854 142.142 144.45 140.792 L 144.45 140.792 L 144.45 140.792 Q 143.046 139.442 143.046 136.706 L 143.046 136.706 L 143.046 126.158 L 140.346 126.158 L 140.346 123.602 L 143.046 123.602 L 143.046 118.49 L 146.43 118.49 L 146.43 123.602 L 152.262 123.602 L 152.262 126.158 L 146.43 126.158 L 146.43 136.094 L 146.43 136.094 Q 146.43 137.678 147.006 138.362 L 147.006 138.362 L 147.006 138.362 Q 147.582 139.046 148.734 139.046 L 148.734 139.046 L 148.734 139.046 Q 150.102 139.046 151.686 138.146 L 151.686 138.146 Z  M 164.286 122.846 L 164.286 122.846 Q 168.714 122.846 170.982 125.456 L 170.982 125.456 L 170.982 125.456 Q 173.25 128.066 173.25 132.71 L 173.25 132.71 L 173.25 132.71 Q 173.25 133.43 173.214 133.79 L 173.214 133.79 L 158.166 133.79 L 158.166 133.79 Q 158.562 136.346 160.308 137.858 L 160.308 137.858 L 160.308 137.858 Q 162.054 139.37 164.61 139.37 L 164.61 139.37 L 164.61 139.37 Q 166.302 139.37 167.76 138.758 L 167.76 138.758 L 167.76 138.758 Q 169.218 138.146 170.298 137.03 L 170.298 137.03 L 172.134 138.938 L 172.134 138.938 Q 170.73 140.45 168.75 141.278 L 168.75 141.278 L 168.75 141.278 Q 166.77 142.106 164.358 142.106 L 164.358 142.106 L 164.358 142.106 Q 161.55 142.106 159.372 140.9 L 159.372 140.9 L 159.372 140.9 Q 157.194 139.694 155.988 137.498 L 155.988 137.498 L 155.988 137.498 Q 154.782 135.302 154.782 132.494 L 154.782 132.494 L 154.782 132.494 Q 154.782 129.686 155.988 127.508 L 155.988 127.508 L 155.988 127.508 Q 157.194 125.33 159.354 124.088 L 159.354 124.088 L 159.354 124.088 Q 161.514 122.846 164.286 122.846 L 164.286 122.846 Z  M 158.13 131.198 L 170.226 131.198 L 170.226 131.198 Q 170.082 128.606 168.498 127.112 L 168.498 127.112 L 168.498 127.112 Q 166.914 125.618 164.322 125.618 L 164.322 125.618 L 164.322 125.618 Q 161.802 125.618 160.128 127.13 L 160.128 127.13 L 160.128 127.13 Q 158.454 128.642 158.13 131.198 L 158.13 131.198 Z  M 191.178 128.03 L 191.178 128.03 Q 188.91 125.834 185.742 125.834 L 185.742 125.834 L 185.742 125.834 Q 183.87 125.834 182.412 126.662 L 182.412 126.662 L 182.412 126.662 Q 180.954 127.49 180.126 129.002 L 180.126 129.002 L 180.126 129.002 Q 179.298 130.514 179.298 132.494 L 179.298 132.494 L 179.298 132.494 Q 179.298 134.474 180.108 135.986 L 180.108 135.986 L 180.108 135.986 Q 180.918 137.498 182.34 138.344 L 182.34 138.344 L 182.34 138.344 Q 183.762 139.19 185.598 139.19 L 185.598 139.19 L 185.598 139.19 Q 187.434 139.19 188.91 138.578 L 188.91 138.578 L 188.91 138.578 Q 190.386 137.966 191.358 136.814 L 191.358 136.814 L 193.266 138.758 L 193.266 138.758 Q 191.97 140.378 189.972 141.242 L 189.972 141.242 L 189.972 141.242 Q 187.974 142.106 185.454 142.106 L 185.454 142.106 L 185.454 142.106 Q 182.682 142.106 180.522 140.882 L 180.522 140.882 L 180.522 140.882 Q 178.362 139.658 177.156 137.48 L 177.156 137.48 L 177.156 137.48 Q 175.95 135.302 175.95 132.494 L 175.95 132.494 L 175.95 132.494 Q 175.95 129.686 177.156 127.49 L 177.156 127.49 L 177.156 127.49 Q 178.362 125.294 180.522 124.07 L 180.522 124.07 L 180.522 124.07 Q 182.682 122.846 185.454 122.846 L 185.454 122.846 L 185.454 122.846 Q 187.866 122.846 189.792 123.584 L 189.792 123.584 L 189.792 123.584 Q 191.718 124.322 193.014 125.726 L 193.014 125.726 L 191.178 128.03 Z  M 207.378 138.146 L 208.278 140.738 L 208.278 140.738 Q 206.082 142.142 203.814 142.142 L 203.814 142.142 L 203.814 142.142 Q 201.546 142.142 200.142 140.792 L 200.142 140.792 L 200.142 140.792 Q 198.738 139.442 198.738 136.706 L 198.738 136.706 L 198.738 126.158 L 196.038 126.158 L 196.038 123.602 L 198.738 123.602 L 198.738 118.49 L 202.122 118.49 L 202.122 123.602 L 207.954 123.602 L 207.954 126.158 L 202.122 126.158 L 202.122 136.094 L 202.122 136.094 Q 202.122 137.678 202.698 138.362 L 202.698 138.362 L 202.698 138.362 Q 203.274 139.046 204.426 139.046 L 204.426 139.046 L 204.426 139.046 Q 205.794 139.046 207.378 138.146 L 207.378 138.146 Z  M 225.81 122.954 L 229.194 122.954 L 229.194 141.998 L 225.81 141.998 L 225.81 137.966 L 225.81 137.966 Q 223.938 142.034 218.754 142.106 L 218.754 142.106 L 218.754 142.106 Q 215.442 142.106 213.57 140.144 L 213.57 140.144 L 213.57 140.144 Q 211.698 138.182 211.698 134.726 L 211.698 134.726 L 211.698 122.954 L 215.082 122.954 L 215.082 133.826 L 215.082 133.826 Q 215.082 136.238 216.396 137.588 L 216.396 137.588 L 216.396 137.588 Q 217.71 138.938 220.014 138.938 L 220.014 138.938 L 220.014 138.938 Q 222.678 138.902 224.244 137.048 L 224.244 137.048 L 224.244 137.048 Q 225.81 135.194 225.81 132.314 L 225.81 132.314 L 225.81 122.954 Z  M 239.058 127.058 L 239.058 127.058 Q 239.994 125.006 241.722 123.944 L 241.722 123.944 L 241.722 123.944 Q 243.45 122.882 245.826 122.846 L 245.826 122.846 L 245.826 126.086 L 245.826 126.086 Q 242.91 125.978 241.11 127.598 L 241.11 127.598 L 241.11 127.598 Q 239.31 129.218 239.058 131.954 L 239.058 131.954 L 239.058 141.998 L 235.71 141.998 L 235.71 122.954 L 239.058 122.954 L 239.058 127.058 Z  M 257.094 122.846 L 257.094 122.846 Q 261.522 122.846 263.79 125.456 L 263.79 125.456 L 263.79 125.456 Q 266.058 128.066 266.058 132.71 L 266.058 132.71 L 266.058 132.71 Q 266.058 133.43 266.022 133.79 L 266.022 133.79 L 250.974 133.79 L 250.974 133.79 Q 251.37 136.346 253.116 137.858 L 253.116 137.858 L 253.116 137.858 Q 254.862 139.37 257.418 139.37 L 257.418 139.37 L 257.418 139.37 Q 259.11 139.37 260.568 138.758 L 260.568 138.758 L 260.568 138.758 Q 262.026 138.146 263.106 137.03 L 263.106 137.03 L 264.942 138.938 L 264.942 138.938 Q 263.538 140.45 261.558 141.278 L 261.558 141.278 L 261.558 141.278 Q 259.578 142.106 257.166 142.106 L 257.166 142.106 L 257.166 142.106 Q 254.358 142.106 252.18 140.9 L 252.18 140.9 L 252.18 140.9 Q 250.002 139.694 248.796 137.498 L 248.796 137.498 L 248.796 137.498 Q 247.59 135.302 247.59 132.494 L 247.59 132.494 L 247.59 132.494 Q 247.59 129.686 248.796 127.508 L 248.796 127.508 L 248.796 127.508 Q 250.002 125.33 252.162 124.088 L 252.162 124.088 L 252.162 124.088 Q 254.322 122.846 257.094 122.846 L 257.094 122.846 Z  M 250.938 131.198 L 263.034 131.198 L 263.034 131.198 Q 262.89 128.606 261.306 127.112 L 261.306 127.112 L 261.306 127.112 Q 259.722 125.618 257.13 125.618 L 257.13 125.618 L 257.13 125.618 Q 254.61 125.618 252.936 127.13 L 252.936 127.13 L 252.936 127.13 Q 251.262 128.642 250.938 131.198 L 250.938 131.198 Z  M 272.952 98.114 L 272.952 72.914 L 277.056 72.914 L 286.272 90.626 L 295.416 72.914 L 299.556 72.914 L 299.556 98.114 L 296.316 98.114 L 296.28 77.99 L 287.316 95.45 L 285.192 95.45 L 276.156 77.99 L 276.156 98.114 L 272.952 98.114 Z  M 314.352 78.962 L 314.352 78.962 Q 317.196 78.962 319.41 80.186 L 319.41 80.186 L 319.41 80.186 Q 321.624 81.41 322.866 83.588 L 322.866 83.588 L 322.866 83.588 Q 324.108 85.766 324.108 88.574 L 324.108 88.574 L 324.108 88.574 Q 324.108 91.382 322.866 93.578 L 322.866 93.578 L 322.866 93.578 Q 321.624 95.774 319.41 96.998 L 319.41 96.998 L 319.41 96.998 Q 317.196 98.222 314.352 98.222 L 314.352 98.222 L 314.352 98.222 Q 311.472 98.222 309.258 96.998 L 309.258 96.998 L 309.258 96.998 Q 307.044 95.774 305.802 93.596 L 305.802 93.596 L 305.802 93.596 Q 304.56 91.418 304.56 88.574 L 304.56 88.574 L 304.56 88.574 Q 304.56 85.766 305.802 83.588 L 305.802 83.588 L 305.802 83.588 Q 307.044 81.41 309.258 80.186 L 309.258 80.186 L 309.258 80.186 Q 311.472 78.962 314.352 78.962 L 314.352 78.962 Z  M 314.352 81.878 L 314.352 81.878 Q 312.48 81.878 311.022 82.742 L 311.022 82.742 L 311.022 82.742 Q 309.564 83.606 308.754 85.136 L 308.754 85.136 L 308.754 85.136 Q 307.944 86.666 307.944 88.61 L 307.944 88.61 L 307.944 88.61 Q 307.944 90.59 308.754 92.138 L 308.754 92.138 L 308.754 92.138 Q 309.564 93.686 311.022 94.532 L 311.022 94.532 L 311.022 94.532 Q 312.48 95.378 314.352 95.378 L 314.352 95.378 L 314.352 95.378 Q 316.188 95.378 317.646 94.532 L 317.646 94.532 L 317.646 94.532 Q 319.104 93.686 319.914 92.138 L 319.914 92.138 L 319.914 92.138 Q 320.724 90.59 320.724 88.61 L 320.724 88.61 L 320.724 88.61 Q 320.724 86.666 319.914 85.136 L 319.914 85.136 L 319.914 85.136 Q 319.104 83.606 317.646 82.742 L 317.646 82.742 L 317.646 82.742 Q 316.188 81.878 314.352 81.878 L 314.352 81.878 Z  M 343.188 71.402 L 346.536 71.402 L 346.536 98.114 L 343.188 98.114 L 343.188 94.334 L 343.188 94.334 Q 342.108 96.242 340.29 97.268 L 340.29 97.268 L 340.29 97.268 Q 338.472 98.294 336.06 98.294 L 336.06 98.294 L 336.06 98.294 Q 333.36 98.294 331.29 97.052 L 331.29 97.052 L 331.29 97.052 Q 329.22 95.81 328.068 93.596 L 328.068 93.596 L 328.068 93.596 Q 326.916 91.382 326.916 88.538 L 326.916 88.538 L 326.916 88.538 Q 326.916 85.73 328.068 83.552 L 328.068 83.552 L 328.068 83.552 Q 329.22 81.374 331.29 80.15 L 331.29 80.15 L 331.29 80.15 Q 333.36 78.926 336.024 78.926 L 336.024 78.926 L 336.024 78.926 Q 338.472 78.926 340.308 79.934 L 340.308 79.934 L 340.308 79.934 Q 342.144 80.942 343.188 82.85 L 343.188 82.85 L 343.188 71.402 Z  M 336.744 95.414 L 336.744 95.414 Q 338.616 95.414 340.074 94.55 L 340.074 94.55 L 340.074 94.55 Q 341.532 93.686 342.36 92.138 L 342.36 92.138 L 342.36 92.138 Q 343.188 90.59 343.188 88.646 L 343.188 88.646 L 343.188 88.646 Q 343.188 86.666 342.36 85.118 L 342.36 85.118 L 342.36 85.118 Q 341.532 83.57 340.074 82.706 L 340.074 82.706 L 340.074 82.706 Q 338.616 81.842 336.744 81.842 L 336.744 81.842 L 336.744 81.842 Q 334.872 81.842 333.414 82.724 L 333.414 82.724 L 333.414 82.724 Q 331.956 83.606 331.128 85.154 L 331.128 85.154 L 331.128 85.154 Q 330.3 86.702 330.3 88.646 L 330.3 88.646 L 330.3 88.646 Q 330.3 90.59 331.128 92.138 L 331.128 92.138 L 331.128 92.138 Q 331.956 93.686 333.414 94.55 L 333.414 94.55 L 333.414 94.55 Q 334.872 95.414 336.744 95.414 L 336.744 95.414 Z  M 366.732 79.07 L 370.116 79.07 L 370.116 98.114 L 366.732 98.114 L 366.732 94.082 L 366.732 94.082 Q 364.86 98.15 359.676 98.222 L 359.676 98.222 L 359.676 98.222 Q 356.364 98.222 354.492 96.26 L 354.492 96.26 L 354.492 96.26 Q 352.62 94.298 352.62 90.842 L 352.62 90.842 L 352.62 79.07 L 356.004 79.07 L 356.004 89.942 L 356.004 89.942 Q 356.004 92.354 357.318 93.704 L 357.318 93.704 L 357.318 93.704 Q 358.632 95.054 360.936 95.054 L 360.936 95.054 L 360.936 95.054 Q 363.6 95.018 365.166 93.164 L 365.166 93.164 L 365.166 93.164 Q 366.732 91.31 366.732 88.43 L 366.732 88.43 L 366.732 79.07 Z  M 376.812 98.114 L 376.812 71.402 L 380.16 71.402 L 380.16 98.114 L 376.812 98.114 Z  M 401.832 98.114 L 398.52 98.114 L 398.52 95.45 L 398.52 95.45 Q 396.396 98.258 391.86 98.258 L 391.86 98.258 L 391.86 98.258 Q 389.88 98.258 388.386 97.502 L 388.386 97.502 L 388.386 97.502 Q 386.892 96.746 386.082 95.414 L 386.082 95.414 L 386.082 95.414 Q 385.272 94.082 385.272 92.426 L 385.272 92.426 L 385.272 92.426 Q 385.272 89.87 387.162 88.376 L 387.162 88.376 L 387.162 88.376 Q 389.052 86.882 392.436 86.846 L 392.436 86.846 L 398.484 86.846 L 398.484 85.946 L 398.484 85.946 Q 398.484 83.93 397.242 82.832 L 397.242 82.832 L 397.242 82.832 Q 396 81.734 393.624 81.734 L 393.624 81.734 L 393.624 81.734 Q 390.744 81.734 387.756 83.786 L 387.756 83.786 L 386.352 81.482 L 386.352 81.482 Q 388.404 80.15 390.15 79.556 L 390.15 79.556 L 390.15 79.556 Q 391.896 78.962 394.308 78.962 L 394.308 78.962 L 394.308 78.962 Q 397.872 78.962 399.816 80.708 L 399.816 80.708 L 399.816 80.708 Q 401.76 82.454 401.796 85.586 L 401.796 85.586 L 401.832 98.114 Z  M 392.544 95.486 L 392.544 95.486 Q 394.884 95.486 396.522 94.352 L 396.522 94.352 L 396.522 94.352 Q 398.16 93.218 398.484 91.346 L 398.484 91.346 L 398.484 89.438 L 392.904 89.438 L 392.904 89.438 Q 390.636 89.438 389.538 90.122 L 389.538 90.122 L 389.538 90.122 Q 388.44 90.806 388.44 92.282 L 388.44 92.282 L 388.44 92.282 Q 388.44 93.758 389.556 94.622 L 389.556 94.622 L 389.556 94.622 Q 390.672 95.486 392.544 95.486 L 392.544 95.486 Z  M 411.156 83.174 L 411.156 83.174 Q 412.092 81.122 413.82 80.06 L 413.82 80.06 L 413.82 80.06 Q 415.548 78.998 417.924 78.962 L 417.924 78.962 L 417.924 82.202 L 417.924 82.202 Q 415.008 82.094 413.208 83.714 L 413.208 83.714 L 413.208 83.714 Q 411.408 85.334 411.156 88.07 L 411.156 88.07 L 411.156 98.114 L 407.808 98.114 L 407.808 79.07 L 411.156 79.07 L 411.156 83.174 Z  M 209.016 98.114 L 205.704 98.114 L 205.704 95.45 L 205.704 95.45 Q 203.58 98.258 199.044 98.258 L 199.044 98.258 L 199.044 98.258 Q 197.064 98.258 195.57 97.502 L 195.57 97.502 L 195.57 97.502 Q 194.076 96.746 193.266 95.414 L 193.266 95.414 L 193.266 95.414 Q 192.456 94.082 192.456 92.426 L 192.456 92.426 L 192.456 92.426 Q 192.456 89.87 194.346 88.376 L 194.346 88.376 L 194.346 88.376 Q 196.236 86.882 199.62 86.846 L 199.62 86.846 L 205.668 86.846 L 205.668 85.946 L 205.668 85.946 Q 205.668 83.93 204.426 82.832 L 204.426 82.832 L 204.426 82.832 Q 203.184 81.734 200.808 81.734 L 200.808 81.734 L 200.808 81.734 Q 197.928 81.734 194.94 83.786 L 194.94 83.786 L 193.536 81.482 L 193.536 81.482 Q 195.588 80.15 197.334 79.556 L 197.334 79.556 L 197.334 79.556 Q 199.08 78.962 201.492 78.962 L 201.492 78.962 L 201.492 78.962 Q 205.056 78.962 207 80.708 L 207 80.708 L 207 80.708 Q 208.944 82.454 208.98 85.586 L 208.98 85.586 L 209.016 98.114 Z  M 199.728 95.486 L 199.728 95.486 Q 202.068 95.486 203.706 94.352 L 203.706 94.352 L 203.706 94.352 Q 205.344 93.218 205.668 91.346 L 205.668 91.346 L 205.668 89.438 L 200.088 89.438 L 200.088 89.438 Q 197.82 89.438 196.722 90.122 L 196.722 90.122 L 196.722 90.122 Q 195.624 90.806 195.624 92.282 L 195.624 92.282 L 195.624 92.282 Q 195.624 93.758 196.74 94.622 L 196.74 94.622 L 196.74 94.622 Q 197.856 95.486 199.728 95.486 L 199.728 95.486 Z  M 225.576 78.962 L 225.576 78.962 Q 228.924 78.962 230.832 80.924 L 230.832 80.924 L 230.832 80.924 Q 232.74 82.886 232.74 86.342 L 232.74 86.342 L 232.74 98.114 L 229.392 98.114 L 229.392 87.242 L 229.392 87.242 Q 229.392 84.83 228.042 83.48 L 228.042 83.48 L 228.042 83.48 Q 226.692 82.13 224.316 82.13 L 224.316 82.13 L 224.316 82.13 Q 221.76 82.166 220.158 83.768 L 220.158 83.768 L 220.158 83.768 Q 218.556 85.37 218.34 87.926 L 218.34 87.926 L 218.34 98.114 L 214.992 98.114 L 214.992 79.07 L 218.34 79.07 L 218.34 83.102 L 218.34 83.102 Q 220.248 79.034 225.576 78.962 L 225.576 78.962 Z  M 253.116 71.402 L 256.464 71.402 L 256.464 98.114 L 253.116 98.114 L 253.116 94.334 L 253.116 94.334 Q 252.036 96.242 250.218 97.268 L 250.218 97.268 L 250.218 97.268 Q 248.4 98.294 245.988 98.294 L 245.988 98.294 L 245.988 98.294 Q 243.288 98.294 241.218 97.052 L 241.218 97.052 L 241.218 97.052 Q 239.148 95.81 237.996 93.596 L 237.996 93.596 L 237.996 93.596 Q 236.844 91.382 236.844 88.538 L 236.844 88.538 L 236.844 88.538 Q 236.844 85.73 237.996 83.552 L 237.996 83.552 L 237.996 83.552 Q 239.148 81.374 241.218 80.15 L 241.218 80.15 L 241.218 80.15 Q 243.288 78.926 245.952 78.926 L 245.952 78.926 L 245.952 78.926 Q 248.4 78.926 250.236 79.934 L 250.236 79.934 L 250.236 79.934 Q 252.072 80.942 253.116 82.85 L 253.116 82.85 L 253.116 71.402 Z  M 246.672 95.414 L 246.672 95.414 Q 248.544 95.414 250.002 94.55 L 250.002 94.55 L 250.002 94.55 Q 251.46 93.686 252.288 92.138 L 252.288 92.138 L 252.288 92.138 Q 253.116 90.59 253.116 88.646 L 253.116 88.646 L 253.116 88.646 Q 253.116 86.666 252.288 85.118 L 252.288 85.118 L 252.288 85.118 Q 251.46 83.57 250.002 82.706 L 250.002 82.706 L 250.002 82.706 Q 248.544 81.842 246.672 81.842 L 246.672 81.842 L 246.672 81.842 Q 244.8 81.842 243.342 82.724 L 243.342 82.724 L 243.342 82.724 Q 241.884 83.606 241.056 85.154 L 241.056 85.154 L 241.056 85.154 Q 240.228 86.702 240.228 88.646 L 240.228 88.646 L 240.228 88.646 Q 240.228 90.59 241.056 92.138 L 241.056 92.138 L 241.056 92.138 Q 241.884 93.686 243.342 94.55 L 243.342 94.55 L 243.342 94.55 Q 244.8 95.414 246.672 95.414 L 246.672 95.414 Z  M 49.356 78.17 L 49.356 78.17 Q 47.592 77.054 45.702 76.496 L 45.702 76.496 L 45.702 76.496 Q 43.812 75.938 42.228 75.938 L 42.228 75.938 L 42.228 75.938 Q 40.032 75.938 38.718 76.784 L 38.718 76.784 L 38.718 76.784 Q 37.404 77.63 37.404 79.106 L 37.404 79.106 L 37.404 79.106 Q 37.404 80.438 38.196 81.284 L 38.196 81.284 L 38.196 81.284 Q 38.988 82.13 40.14 82.616 L 40.14 82.616 L 40.14 82.616 Q 41.292 83.102 43.344 83.75 L 43.344 83.75 L 43.344 83.75 Q 45.9 84.542 47.484 85.262 L 47.484 85.262 L 47.484 85.262 Q 49.068 85.982 50.184 87.404 L 50.184 87.404 L 50.184 87.404 Q 51.3 88.826 51.3 91.166 L 51.3 91.166 L 51.3 91.166 Q 51.3 93.326 50.13 94.946 L 50.13 94.946 L 50.13 94.946 Q 48.96 96.566 46.854 97.448 L 46.854 97.448 L 46.854 97.448 Q 44.748 98.33 42.012 98.33 L 42.012 98.33 L 42.012 98.33 Q 39.24 98.33 36.612 97.25 L 36.612 97.25 L 36.612 97.25 Q 33.984 96.17 32.076 94.37 L 32.076 94.37 L 33.624 91.382 L 33.624 91.382 Q 35.424 93.146 37.674 94.1 L 37.674 94.1 L 37.674 94.1 Q 39.924 95.054 42.048 95.054 L 42.048 95.054 L 42.048 95.054 Q 44.568 95.054 46.026 94.064 L 46.026 94.064 L 46.026 94.064 Q 47.484 93.074 47.484 91.382 L 47.484 91.382 L 47.484 91.382 Q 47.484 90.05 46.692 89.186 L 46.692 89.186 L 46.692 89.186 Q 45.9 88.322 44.694 87.818 L 44.694 87.818 L 44.694 87.818 Q 43.488 87.314 41.436 86.702 L 41.436 86.702 L 41.436 86.702 Q 38.916 85.946 37.332 85.226 L 37.332 85.226 L 37.332 85.226 Q 35.748 84.506 34.65 83.102 L 34.65 83.102 L 34.65 83.102 Q 33.552 81.698 33.552 79.394 L 33.552 79.394 L 33.552 79.394 Q 33.552 77.378 34.668 75.83 L 34.668 75.83 L 34.668 75.83 Q 35.784 74.282 37.8 73.454 L 37.8 73.454 L 37.8 73.454 Q 39.816 72.626 42.48 72.626 L 42.48 72.626 L 42.48 72.626 Q 44.748 72.626 46.926 73.292 L 46.926 73.292 L 46.926 73.292 Q 49.104 73.958 50.796 75.074 L 50.796 75.074 L 49.356 78.17 Z  M 69.84 84.146 L 69.84 84.146 Q 67.572 81.95 64.404 81.95 L 64.404 81.95 L 64.404 81.95 Q 62.532 81.95 61.074 82.778 L 61.074 82.778 L 61.074 82.778 Q 59.616 83.606 58.788 85.118 L 58.788 85.118 L 58.788 85.118 Q 57.96 86.63 57.96 88.61 L 57.96 88.61 L 57.96 88.61 Q 57.96 90.59 58.77 92.102 L 58.77 92.102 L 58.77 92.102 Q 59.58 93.614 61.002 94.46 L 61.002 94.46 L 61.002 94.46 Q 62.424 95.306 64.26 95.306 L 64.26 95.306 L 64.26 95.306 Q 66.096 95.306 67.572 94.694 L 67.572 94.694 L 67.572 94.694 Q 69.048 94.082 70.02 92.93 L 70.02 92.93 L 71.928 94.874 L 71.928 94.874 Q 70.632 96.494 68.634 97.358 L 68.634 97.358 L 68.634 97.358 Q 66.636 98.222 64.116 98.222 L 64.116 98.222 L 64.116 98.222 Q 61.344 98.222 59.184 96.998 L 59.184 96.998 L 59.184 96.998 Q 57.024 95.774 55.818 93.596 L 55.818 93.596 L 55.818 93.596 Q 54.612 91.418 54.612 88.61 L 54.612 88.61 L 54.612 88.61 Q 54.612 85.802 55.818 83.606 L 55.818 83.606 L 55.818 83.606 Q 57.024 81.41 59.184 80.186 L 59.184 80.186 L 59.184 80.186 Q 61.344 78.962 64.116 78.962 L 64.116 78.962 L 64.116 78.962 Q 66.528 78.962 68.454 79.7 L 68.454 79.7 L 68.454 79.7 Q 70.38 80.438 71.676 81.842 L 71.676 81.842 L 69.84 84.146 Z  M 91.656 98.114 L 88.344 98.114 L 88.344 95.45 L 88.344 95.45 Q 86.22 98.258 81.684 98.258 L 81.684 98.258 L 81.684 98.258 Q 79.704 98.258 78.21 97.502 L 78.21 97.502 L 78.21 97.502 Q 76.716 96.746 75.906 95.414 L 75.906 95.414 L 75.906 95.414 Q 75.096 94.082 75.096 92.426 L 75.096 92.426 L 75.096 92.426 Q 75.096 89.87 76.986 88.376 L 76.986 88.376 L 76.986 88.376 Q 78.876 86.882 82.26 86.846 L 82.26 86.846 L 88.308 86.846 L 88.308 85.946 L 88.308 85.946 Q 88.308 83.93 87.066 82.832 L 87.066 82.832 L 87.066 82.832 Q 85.824 81.734 83.448 81.734 L 83.448 81.734 L 83.448 81.734 Q 80.568 81.734 77.58 83.786 L 77.58 83.786 L 76.176 81.482 L 76.176 81.482 Q 78.228 80.15 79.974 79.556 L 79.974 79.556 L 79.974 79.556 Q 81.72 78.962 84.132 78.962 L 84.132 78.962 L 84.132 78.962 Q 87.696 78.962 89.64 80.708 L 89.64 80.708 L 89.64 80.708 Q 91.584 82.454 91.62 85.586 L 91.62 85.586 L 91.656 98.114 Z  M 82.368 95.486 L 82.368 95.486 Q 84.708 95.486 86.346 94.352 L 86.346 94.352 L 86.346 94.352 Q 87.984 93.218 88.308 91.346 L 88.308 91.346 L 88.308 89.438 L 82.728 89.438 L 82.728 89.438 Q 80.46 89.438 79.362 90.122 L 79.362 90.122 L 79.362 90.122 Q 78.264 90.806 78.264 92.282 L 78.264 92.282 L 78.264 92.282 Q 78.264 93.758 79.38 94.622 L 79.38 94.622 L 79.38 94.622 Q 80.496 95.486 82.368 95.486 L 82.368 95.486 Z  M 97.812 98.114 L 97.812 71.402 L 101.16 71.402 L 101.16 98.114 L 97.812 98.114 Z  M 122.832 98.114 L 119.52 98.114 L 119.52 95.45 L 119.52 95.45 Q 117.396 98.258 112.86 98.258 L 112.86 98.258 L 112.86 98.258 Q 110.88 98.258 109.386 97.502 L 109.386 97.502 L 109.386 97.502 Q 107.892 96.746 107.082 95.414 L 107.082 95.414 L 107.082 95.414 Q 106.272 94.082 106.272 92.426 L 106.272 92.426 L 106.272 92.426 Q 106.272 89.87 108.162 88.376 L 108.162 88.376 L 108.162 88.376 Q 110.052 86.882 113.436 86.846 L 113.436 86.846 L 119.484 86.846 L 119.484 85.946 L 119.484 85.946 Q 119.484 83.93 118.242 82.832 L 118.242 82.832 L 118.242 82.832 Q 117 81.734 114.624 81.734 L 114.624 81.734 L 114.624 81.734 Q 111.744 81.734 108.756 83.786 L 108.756 83.786 L 107.352 81.482 L 107.352 81.482 Q 109.404 80.15 111.15 79.556 L 111.15 79.556 L 111.15 79.556 Q 112.896 78.962 115.308 78.962 L 115.308 78.962 L 115.308 78.962 Q 118.872 78.962 120.816 80.708 L 120.816 80.708 L 120.816 80.708 Q 122.76 82.454 122.796 85.586 L 122.796 85.586 L 122.832 98.114 Z  M 113.544 95.486 L 113.544 95.486 Q 115.884 95.486 117.522 94.352 L 117.522 94.352 L 117.522 94.352 Q 119.16 93.218 119.484 91.346 L 119.484 91.346 L 119.484 89.438 L 113.904 89.438 L 113.904 89.438 Q 111.636 89.438 110.538 90.122 L 110.538 90.122 L 110.538 90.122 Q 109.44 90.806 109.44 92.282 L 109.44 92.282 L 109.44 92.282 Q 109.44 93.758 110.556 94.622 L 110.556 94.622 L 110.556 94.622 Q 111.672 95.486 113.544 95.486 L 113.544 95.486 Z  M 139.392 78.962 L 139.392 78.962 Q 142.056 78.962 144.144 80.186 L 144.144 80.186 L 144.144 80.186 Q 146.232 81.41 147.384 83.606 L 147.384 83.606 L 147.384 83.606 Q 148.536 85.802 148.536 88.646 L 148.536 88.646 L 148.536 88.646 Q 148.536 91.454 147.402 93.632 L 147.402 93.632 L 147.402 93.632 Q 146.268 95.81 144.198 97.016 L 144.198 97.016 L 144.198 97.016 Q 142.128 98.222 139.464 98.222 L 139.464 98.222 L 139.464 98.222 Q 137.052 98.222 135.216 97.214 L 135.216 97.214 L 135.216 97.214 Q 133.38 96.206 132.336 94.334 L 132.336 94.334 L 132.336 98.114 L 128.988 98.114 L 128.988 71.402 L 132.336 71.402 L 132.336 82.85 L 132.336 82.85 Q 133.38 80.978 135.198 79.97 L 135.198 79.97 L 135.198 79.97 Q 137.016 78.962 139.392 78.962 L 139.392 78.962 Z  M 138.744 95.306 L 138.744 95.306 Q 140.58 95.306 142.038 94.442 L 142.038 94.442 L 142.038 94.442 Q 143.496 93.578 144.306 92.03 L 144.306 92.03 L 144.306 92.03 Q 145.116 90.482 145.116 88.538 L 145.116 88.538 L 145.116 88.538 Q 145.116 86.63 144.288 85.082 L 144.288 85.082 L 144.288 85.082 Q 143.46 83.534 142.02 82.67 L 142.02 82.67 L 142.02 82.67 Q 140.58 81.806 138.744 81.806 L 138.744 81.806 L 138.744 81.806 Q 136.908 81.806 135.45 82.67 L 135.45 82.67 L 135.45 82.67 Q 133.992 83.534 133.164 85.082 L 133.164 85.082 L 133.164 85.082 Q 132.336 86.63 132.336 88.538 L 132.336 88.538 L 132.336 88.538 Q 132.336 90.518 133.164 92.048 L 133.164 92.048 L 133.164 92.048 Q 133.992 93.578 135.45 94.442 L 135.45 94.442 L 135.45 94.442 Q 136.908 95.306 138.744 95.306 L 138.744 95.306 Z  M 153.396 98.114 L 153.396 71.402 L 156.744 71.402 L 156.744 98.114 L 153.396 98.114 Z  M 171.108 78.962 L 171.108 78.962 Q 175.536 78.962 177.804 81.572 L 177.804 81.572 L 177.804 81.572 Q 180.072 84.182 180.072 88.826 L 180.072 88.826 L 180.072 88.826 Q 180.072 89.546 180.036 89.906 L 180.036 89.906 L 164.988 89.906 L 164.988 89.906 Q 165.384 92.462 167.13 93.974 L 167.13 93.974 L 167.13 93.974 Q 168.876 95.486 171.432 95.486 L 171.432 95.486 L 171.432 95.486 Q 173.124 95.486 174.582 94.874 L 174.582 94.874 L 174.582 94.874 Q 176.04 94.262 177.12 93.146 L 177.12 93.146 L 178.956 95.054 L 178.956 95.054 Q 177.552 96.566 175.572 97.394 L 175.572 97.394 L 175.572 97.394 Q 173.592 98.222 171.18 98.222 L 171.18 98.222 L 171.18 98.222 Q 168.372 98.222 166.194 97.016 L 166.194 97.016 L 166.194 97.016 Q 164.016 95.81 162.81 93.614 L 162.81 93.614 L 162.81 93.614 Q 161.604 91.418 161.604 88.61 L 161.604 88.61 L 161.604 88.61 Q 161.604 85.802 162.81 83.624 L 162.81 83.624 L 162.81 83.624 Q 164.016 81.446 166.176 80.204 L 166.176 80.204 L 166.176 80.204 Q 168.336 78.962 171.108 78.962 L 171.108 78.962 Z  M 164.952 87.314 L 177.048 87.314 L 177.048 87.314 Q 176.904 84.722 175.32 83.228 L 175.32 83.228 L 175.32 83.228 Q 173.736 81.734 171.144 81.734 L 171.144 81.734 L 171.144 81.734 Q 168.624 81.734 166.95 83.246 L 166.95 83.246 L 166.95 83.246 Q 165.276 84.758 164.952 87.314 L 164.952 87.314 Z " fill-rule="evenodd" fill="rgb(220,20,60)"/><path d=" M 129.9 16.99 L 129.9 16.99 Q 126.96 15.13 123.81 14.2 L 123.81 14.2 L 123.81 14.2 Q 120.66 13.27 118.02 13.27 L 118.02 13.27 L 118.02 13.27 Q 114.36 13.27 112.17 14.68 L 112.17 14.68 L 112.17 14.68 Q 109.98 16.09 109.98 18.55 L 109.98 18.55 L 109.98 18.55 Q 109.98 20.77 111.3 22.18 L 111.3 22.18 L 111.3 22.18 Q 112.62 23.59 114.54 24.4 L 114.54 24.4 L 114.54 24.4 Q 116.46 25.21 119.88 26.29 L 119.88 26.29 L 119.88 26.29 Q 124.14 27.61 126.78 28.81 L 126.78 28.81 L 126.78 28.81 Q 129.42 30.01 131.28 32.38 L 131.28 32.38 L 131.28 32.38 Q 133.14 34.75 133.14 38.65 L 133.14 38.65 L 133.14 38.65 Q 133.14 42.25 131.19 44.95 L 131.19 44.95 L 131.19 44.95 Q 129.24 47.65 125.73 49.12 L 125.73 49.12 L 125.73 49.12 Q 122.22 50.59 117.66 50.59 L 117.66 50.59 L 117.66 50.59 Q 113.04 50.59 108.66 48.79 L 108.66 48.79 L 108.66 48.79 Q 104.28 46.99 101.1 43.99 L 101.1 43.99 L 103.68 39.01 L 103.68 39.01 Q 106.68 41.95 110.43 43.54 L 110.43 43.54 L 110.43 43.54 Q 114.18 45.13 117.72 45.13 L 117.72 45.13 L 117.72 45.13 Q 121.92 45.13 124.35 43.48 L 124.35 43.48 L 124.35 43.48 Q 126.78 41.83 126.78 39.01 L 126.78 39.01 L 126.78 39.01 Q 126.78 36.79 125.46 35.35 L 125.46 35.35 L 125.46 35.35 Q 124.14 33.91 122.13 33.07 L 122.13 33.07 L 122.13 33.07 Q 120.12 32.23 116.7 31.21 L 116.7 31.21 L 116.7 31.21 Q 112.5 29.95 109.86 28.75 L 109.86 28.75 L 109.86 28.75 Q 107.22 27.55 105.39 25.21 L 105.39 25.21 L 105.39 25.21 Q 103.56 22.87 103.56 19.03 L 103.56 19.03 L 103.56 19.03 Q 103.56 15.67 105.42 13.09 L 105.42 13.09 L 105.42 13.09 Q 107.28 10.51 110.64 9.13 L 110.64 9.13 L 110.64 9.13 Q 114 7.75 118.44 7.75 L 118.44 7.75 L 118.44 7.75 Q 122.22 7.75 125.85 8.86 L 125.85 8.86 L 125.85 8.86 Q 129.48 9.97 132.3 11.83 L 132.3 11.83 L 129.9 16.99 Z  M 142.32 50.23 L 142.32 8.23 L 149.16 8.23 L 164.52 37.75 L 179.76 8.23 L 186.66 8.23 L 186.66 50.23 L 181.26 50.23 L 181.2 16.69 L 166.26 45.79 L 162.72 45.79 L 147.66 16.69 L 147.66 50.23 L 142.32 50.23 Z  M 236.1 50.23 L 229.86 50.23 L 225.42 40.03 L 203.28 40.03 L 198.9 50.23 L 192.84 50.23 L 211.5 8.23 L 217.5 8.23 L 236.1 50.23 Z  M 214.32 14.41 L 205.56 34.81 L 223.2 34.81 L 214.32 14.41 Z  M 272.64 18.31 L 272.64 18.31 Q 270.24 15.79 267.06 14.38 L 267.06 14.38 L 267.06 14.38 Q 263.88 12.97 260.52 12.97 L 260.52 12.97 L 260.52 12.97 Q 256.08 12.97 252.36 15.13 L 252.36 15.13 L 252.36 15.13 Q 248.64 17.29 246.48 20.98 L 246.48 20.98 L 246.48 20.98 Q 244.32 24.67 244.32 29.11 L 244.32 29.11 L 244.32 29.11 Q 244.32 33.49 246.48 37.21 L 246.48 37.21 L 246.48 37.21 Q 248.64 40.93 252.36 43.09 L 252.36 43.09 L 252.36 43.09 Q 256.08 45.25 260.52 45.25 L 260.52 45.25 L 260.52 45.25 Q 263.82 45.25 267 43.9 L 267 43.9 L 267 43.9 Q 270.18 42.55 272.64 40.21 L 272.64 40.21 L 276.12 43.99 L 276.12 43.99 Q 272.94 47.11 268.74 48.88 L 268.74 48.88 L 268.74 48.88 Q 264.54 50.65 260.22 50.65 L 260.22 50.65 L 260.22 50.65 Q 254.22 50.65 249.24 47.8 L 249.24 47.8 L 249.24 47.8 Q 244.26 44.95 241.38 40.03 L 241.38 40.03 L 241.38 40.03 Q 238.5 35.11 238.5 29.17 L 238.5 29.17 L 238.5 29.17 Q 238.5 23.29 241.41 18.4 L 241.41 18.4 L 241.41 18.4 Q 244.32 13.51 249.36 10.69 L 249.36 10.69 L 249.36 10.69 Q 254.4 7.87 260.46 7.87 L 260.46 7.87 L 260.46 7.87 Q 264.84 7.87 268.95 9.52 L 268.95 9.52 L 268.95 9.52 Q 273.06 11.17 276.06 14.17 L 276.06 14.17 L 272.64 18.31 Z  M 308.7 16.99 L 308.7 16.99 Q 305.76 15.13 302.61 14.2 L 302.61 14.2 L 302.61 14.2 Q 299.46 13.27 296.82 13.27 L 296.82 13.27 L 296.82 13.27 Q 293.16 13.27 290.97 14.68 L 290.97 14.68 L 290.97 14.68 Q 288.78 16.09 288.78 18.55 L 288.78 18.55 L 288.78 18.55 Q 288.78 20.77 290.1 22.18 L 290.1 22.18 L 290.1 22.18 Q 291.42 23.59 293.34 24.4 L 293.34 24.4 L 293.34 24.4 Q 295.26 25.21 298.68 26.29 L 298.68 26.29 L 298.68 26.29 Q 302.94 27.61 305.58 28.81 L 305.58 28.81 L 305.58 28.81 Q 308.22 30.01 310.08 32.38 L 310.08 32.38 L 310.08 32.38 Q 311.94 34.75 311.94 38.65 L 311.94 38.65 L 311.94 38.65 Q 311.94 42.25 309.99 44.95 L 309.99 44.95 L 309.99 44.95 Q 308.04 47.65 304.53 49.12 L 304.53 49.12 L 304.53 49.12 Q 301.02 50.59 296.46 50.59 L 296.46 50.59 L 296.46 50.59 Q 291.84 50.59 287.46 48.79 L 287.46 48.79 L 287.46 48.79 Q 283.08 46.99 279.9 43.99 L 279.9 43.99 L 282.48 39.01 L 282.48 39.01 Q 285.48 41.95 289.23 43.54 L 289.23 43.54 L 289.23 43.54 Q 292.98 45.13 296.52 45.13 L 296.52 45.13 L 296.52 45.13 Q 300.72 45.13 303.15 43.48 L 303.15 43.48 L 303.15 43.48 Q 305.58 41.83 305.58 39.01 L 305.58 39.01 L 305.58 39.01 Q 305.58 36.79 304.26 35.35 L 304.26 35.35 L 304.26 35.35 Q 302.94 33.91 300.93 33.07 L 300.93 33.07 L 300.93 33.07 Q 298.92 32.23 295.5 31.21 L 295.5 31.21 L 295.5 31.21 Q 291.3 29.95 288.66 28.75 L 288.66 28.75 L 288.66 28.75 Q 286.02 27.55 284.19 25.21 L 284.19 25.21 L 284.19 25.21 Q 282.36 22.87 282.36 19.03 L 282.36 19.03 L 282.36 19.03 Q 282.36 15.67 284.22 13.09 L 284.22 13.09 L 284.22 13.09 Q 286.08 10.51 289.44 9.13 L 289.44 9.13 L 289.44 9.13 Q 292.8 7.75 297.24 7.75 L 297.24 7.75 L 297.24 7.75 Q 301.02 7.75 304.65 8.86 L 304.65 8.86 L 304.65 8.86 Q 308.28 9.97 311.1 11.83 L 311.1 11.83 L 308.7 16.99 Z  M 345.66 16.99 L 345.66 16.99 Q 342.72 15.13 339.57 14.2 L 339.57 14.2 L 339.57 14.2 Q 336.42 13.27 333.78 13.27 L 333.78 13.27 L 333.78 13.27 Q 330.12 13.27 327.93 14.68 L 327.93 14.68 L 327.93 14.68 Q 325.74 16.09 325.74 18.55 L 325.74 18.55 L 325.74 18.55 Q 325.74 20.77 327.06 22.18 L 327.06 22.18 L 327.06 22.18 Q 328.38 23.59 330.3 24.4 L 330.3 24.4 L 330.3 24.4 Q 332.22 25.21 335.64 26.29 L 335.64 26.29 L 335.64 26.29 Q 339.9 27.61 342.54 28.81 L 342.54 28.81 L 342.54 28.81 Q 345.18 30.01 347.04 32.38 L 347.04 32.38 L 347.04 32.38 Q 348.9 34.75 348.9 38.65 L 348.9 38.65 L 348.9 38.65 Q 348.9 42.25 346.95 44.95 L 346.95 44.95 L 346.95 44.95 Q 345 47.65 341.49 49.12 L 341.49 49.12 L 341.49 49.12 Q 337.98 50.59 333.42 50.59 L 333.42 50.59 L 333.42 50.59 Q 328.8 50.59 324.42 48.79 L 324.42 48.79 L 324.42 48.79 Q 320.04 46.99 316.86 43.99 L 316.86 43.99 L 319.44 39.01 L 319.44 39.01 Q 322.44 41.95 326.19 43.54 L 326.19 43.54 L 326.19 43.54 Q 329.94 45.13 333.48 45.13 L 333.48 45.13 L 333.48 45.13 Q 337.68 45.13 340.11 43.48 L 340.11 43.48 L 340.11 43.48 Q 342.54 41.83 342.54 39.01 L 342.54 39.01 L 342.54 39.01 Q 342.54 36.79 341.22 35.35 L 341.22 35.35 L 341.22 35.35 Q 339.9 33.91 337.89 33.07 L 337.89 33.07 L 337.89 33.07 Q 335.88 32.23 332.46 31.21 L 332.46 31.21 L 332.46 31.21 Q 328.26 29.95 325.62 28.75 L 325.62 28.75 L 325.62 28.75 Q 322.98 27.55 321.15 25.21 L 321.15 25.21 L 321.15 25.21 Q 319.32 22.87 319.32 19.03 L 319.32 19.03 L 319.32 19.03 Q 319.32 15.67 321.18 13.09 L 321.18 13.09 L 321.18 13.09 Q 323.04 10.51 326.4 9.13 L 326.4 9.13 L 326.4 9.13 Q 329.76 7.75 334.2 7.75 L 334.2 7.75 L 334.2 7.75 Q 337.98 7.75 341.61 8.86 L 341.61 8.86 L 341.61 8.86 Q 345.24 9.97 348.06 11.83 L 348.06 11.83 L 345.66 16.99 Z " fill-rule="evenodd" fill="rgb(220,20,60)"/></g></svg>